<?xml version="1.0" encoding="UTF-8" standalone="no"?>
<svg
   xmlns:dc="http://purl.org/dc/elements/1.1/"
   xmlns:cc="http://creativecommons.org/ns#"
   xmlns:rdf="http://www.w3.org/1999/02/22-rdf-syntax-ns#"
   xmlns:svg="http://www.w3.org/2000/svg"
   xmlns="http://www.w3.org/2000/svg"
   xmlns:sodipodi="http://sodipodi.sourceforge.net/DTD/sodipodi-0.dtd"
   xmlns:inkscape="http://www.inkscape.org/namespaces/inkscape"
   version="1.1"
   width="100%"
   height="100%"
   viewBox="0 0 957 440"
   id="svg2"
   inkscape:version="0.91 r13725"
   sodipodi:docname="logo.svg">
  <metadata
     id="metadata14">
    <rdf:RDF>
      <cc:Work
         rdf:about="">
        <dc:format>image/svg+xml</dc:format>
        <dc:type
           rdf:resource="http://purl.org/dc/dcmitype/StillImage" />
        <dc:title></dc:title>
      </cc:Work>
    </rdf:RDF>
  </metadata>
  <sodipodi:namedview
     pagecolor="#ffffff"
     bordercolor="#666666"
     borderopacity="1"
     objecttolerance="10"
     gridtolerance="10"
     guidetolerance="10"
     inkscape:pageopacity="0"
     inkscape:pageshadow="2"
     inkscape:window-width="1280"
     inkscape:window-height="962"
     id="namedview12"
     showgrid="false"
     inkscape:zoom="0.3092999"
     inkscape:cx="478.5"
     inkscape:cy="216.76689"
     inkscape:window-x="-8"
     inkscape:window-y="-8"
     inkscape:window-maximized="1"
     inkscape:current-layer="g8" />
  <!-- Web Experience Toolkit (WET) / Boîte à outils de l'expérience Web (BOEW)
wet-boew.github.io/wet-boew/License-en.html / wet-boew.github.io/wet-boew/Licence-fr.html  -->
  <defs
     id="defs4">
    <style
       type="text/css"
       id="style6">
        .wxt_logo {fill:#000;}
        @media screen {.wxt_logo {fill: #3e3e3e;}}
    </style>
  </defs>
  <g
     transform="matrix(1,0,0,0.99999897,-9.6901386,-462.70603)"
     id="g8">
    <path
       class="wxt_logo"
       d="m 784.76421,463.88348 c -53.74043,-0.58107 -92.33393,0.0131 -114.75674,2.90361 -42.99048,5.55125 -88.50143,55.51812 -108.70844,90.80189 -28.17653,42.0222 -58.54856,132.10597 -104.85188,131.84464 -46.30332,-0.26133 -73.05735,-101.99599 -114.08727,-101.58219 -41.02992,0.4138 -61.94413,94.26272 -124.60579,93.98334 C 155.09243,681.5554 106.13019,522.15993 92.880525,463.92697 l -83.1903864,0 c 14.5412604,91.6798 51.6421034,162.13455 85.3476944,211.02514 16.852787,24.44523 35.765367,46.96942 57.460167,64.86237 21.6948,17.89309 36.79435,31.32425 78.72656,32.7585 41.93221,1.43425 79.36998,-67.60749 105.6293,-68.44027 24.25143,-0.7691 30.66925,24.05405 21.57521,40.12012 -9.09404,16.06607 -33.34115,43.30766 -42.05715,68.35816 -12.46372,35.82204 -15.98038,67.51171 -15.21365,90.09597 l 85.02469,-0.28634 c 0.79346,-44.04324 28.4574,-123.43459 72.18907,-125.79598 26.09687,-0.071 72.40657,44.95035 86.24557,63.3016 13.839,18.35125 25.1042,35.87962 50.09872,50.30321 24.99452,14.42359 59.8935,15.90137 93.08137,4.04873 44.24049,-15.79969 66.62963,-58.11828 79.95347,-97.78044 13.32383,-39.66229 19.33415,-83.79235 23.84289,-125.63531 4.50876,-41.84311 6.02376,-66.6541 10.18764,-92.92641 0.84481,-5.33034 2.86329,-24.88878 21.00169,-29.23059 18.13839,-4.34181 144.1078,-0.87599 144.1078,-0.87599 l 0.22814,-84.04104 c 0,0 -128.61461,0.67575 -182.35505,0.0947 z m -65.63955,85.51537 c -7.52359,74.72257 -9.13977,149.92681 -32.02219,219.98456 -5.54075,16.37088 -26.22502,61.17828 -49.89423,47.15019 -3.4193,-1.97313 -12.24425,-11.40637 -24.70174,-27.89169 -14.08009,-18.63264 -34.8486,-46.0802 -66.2121,-66.73975 23.04304,-22.95619 41.22858,-51.28996 56.39684,-76.19101 17.54663,-28.80556 29.66983,-53.04153 29.73206,-53.16599 1.7e-4,-2.6e-4 0.0408,-0.0811 0.0408,-0.0811 17.25469,-34.48936 55.86983,-50.7053 86.66056,-43.06521 z"
       id="path10"
       style="fill:#ffffff"
       inkscape:connector-curvature="0" />
  </g>
</svg>
