<?xml version="1.0" encoding="utf-8"?>
<!-- Generator: Adobe Illustrator 17.1.0, SVG Export Plug-In . SVG Version: 6.00 Build 0)  -->
<!DOCTYPE svg PUBLIC "-//W3C//DTD SVG 1.1//EN" "http://www.w3.org/Graphics/SVG/1.1/DTD/svg11.dtd">
<svg version="1.1" id="Layer_1" xmlns="http://www.w3.org/2000/svg" xmlns:xlink="http://www.w3.org/1999/xlink" x="0px" y="0px"
	 viewBox="-314.8 243 1582.4 293.7" enable-background="new -314.8 243 1582.4 293.7" xml:space="preserve">
<g transform="matrix(1,0,0,0.99999897,-9.6901386,-462.70603)">
	<path fill="#FFFFFF" d="M200.3,708.3c-35.2-0.5-60.4,0-74.6,2.1c-27.8,3.7-57.8,36.3-70.9,59.4C36.4,797.1,16.4,856-13.5,856
		s-47.8-66.7-74.6-66.2s-40.5,61.5-81.4,61.5s-73-104-81.4-142.4h-54.1c9.5,59.9,33.6,105.6,55.7,137.7c11,15.8,23.1,30.5,37.3,42.6
		c14.2,12.1,24.2,20.5,51.5,21.5c27.3,1.1,52-44.1,68.8-44.7c15.8-0.5,20,15.8,14.2,26.3s-21.5,28.4-27.3,44.7
		c-7.9,23.1-10.5,44.1-10,58.8h55.7c0.5-28.9,18.4-80.4,47.3-82c16.8,0,47.3,29.4,56.2,41.5s16.3,23.6,32.6,32.6
		c16.3,9.5,38.9,10.5,61,2.6c28.9-10.5,43.6-37.8,52-63.6c8.9-25.7,12.6-54.6,15.8-82c3.2-27.3,3.7-43.6,6.8-60.4
		c0.5-3.7,2.1-16.3,13.7-18.9c12.1-2.6,94.1-0.5,94.1-0.5v-54.6C319.6,708.3,235.5,708.9,200.3,708.3L200.3,708.3z M157.8,764
		c-4.7,48.9-5.8,97.7-21,143.4c-3.7,10.5-17.3,39.9-32.6,31c-2.1-1.1-7.9-7.4-16.3-18.4c-8.9-12.1-22.6-29.9-43.1-43.6
		c15.2-15.2,26.8-33.6,36.8-49.9c11.6-18.9,19.4-34.7,19.4-34.7l0,0C112.6,769.8,137.3,759.3,157.8,764z"/>
</g>
<g>
	<path fill="#FFFFFF" d="M464.9,258.3c-4.6-3.2-10.1-4.9-16.5-4.9c-5.5,0-10.1,1.2-13.9,3.2c-3.8,2-6.9,4.6-9.6,8.1
		c-2.6,3.5-4.3,7.2-5.5,11.9c-1.2,4.3-1.7,9-1.7,13.6c0,5.2,0.6,10.1,1.7,14.8c1.2,4.6,2.9,8.7,5.5,12.2s5.8,6.1,9.6,8.1
		s8.7,3.2,13.9,3.2c4.1,0,7.5-0.6,10.7-2c3.2-1.4,5.8-3.2,8.1-5.5c2.3-2.3,4.1-5.2,5.2-8.4c1.2-3.2,2-6.7,2.3-10.4h12.2
		c-1.2,11.6-5.2,20.3-11.9,26.6c-6.7,6.4-15.9,9.6-27.5,9.6c-6.9,0-13.3-1.2-18.5-3.8c-5.2-2.3-9.6-5.8-13-10.1
		c-3.5-4.3-6.1-9.3-7.8-15.1s-2.6-11.9-2.6-18.5s0.9-12.7,2.9-18.5c1.7-5.8,4.6-11,8.1-15.3c3.5-4.3,8.1-7.8,13.6-10.1
		c5.5-2.6,11.6-3.8,18.5-3.8c4.6,0,9.3,0.6,13.6,2c4.3,1.2,8.1,3.2,11.3,5.5c3.2,2.6,6.1,5.5,8.4,9.3c2.3,3.8,3.8,7.8,4.3,12.7
		h-12.2C472.7,266.4,469.6,261.5,464.9,258.3z"/>
	<path fill="#FFFFFF" d="M498.8,289.9c1.4-4.3,3.5-7.8,6.1-11c2.6-3.2,6.1-5.5,10.1-7.2c4.1-1.7,8.7-2.6,13.6-2.6
		c5.2,0,9.8,0.9,13.9,2.6s7.2,4.3,10.1,7.2s4.6,6.7,6.1,11s2,8.7,2,13.6s-0.6,9.3-2,13.6c-1.4,4.1-3.5,7.8-6.1,11
		c-2.6,3.2-6.1,5.5-10.1,7.2c-4.1,1.7-8.7,2.6-13.9,2.6s-9.8-0.9-13.6-2.6c-4.1-1.7-7.2-4.1-10.1-7.2c-2.6-3.2-4.6-6.7-6.1-11
		c-1.4-4.1-2-8.7-2-13.6C496.8,298.9,497.3,294.2,498.8,289.9z M509.8,314.2c1.2,3.2,2.6,5.8,4.3,7.8c1.7,2,4.1,3.8,6.7,4.6
		c2.6,1.2,5.2,1.7,7.8,1.7c2.6,0,5.5-0.6,7.8-1.7c2.6-1.2,4.6-2.6,6.7-4.6c1.7-2,3.2-4.6,4.3-7.8c1.2-3.2,1.4-6.7,1.4-10.7
		c0-4.1-0.6-7.5-1.4-10.7c-1.2-3.2-2.6-5.8-4.3-7.8s-4.1-3.8-6.7-4.9s-5.2-1.7-7.8-1.7c-2.6,0-5.5,0.6-7.8,1.7
		c-2.6,1.2-4.6,2.6-6.7,4.9c-1.7,2-3.5,4.6-4.3,7.8c-1.2,3.2-1.4,6.7-1.4,10.7C508.1,307.6,508.6,311,509.8,314.2z"/>
	<path fill="#FFFFFF" d="M621.3,336.5v-9H621c-1.7,3.8-4.6,6.4-8.4,7.8c-3.8,1.7-8.1,2.3-12.7,2.3c-5.2,0-9.6-0.9-13.3-2.9
		c-3.8-1.7-6.9-4.3-9.6-7.5c-2.6-3.2-4.3-6.7-5.8-11c-1.2-4.1-2-8.7-2-13.3s0.6-9,1.7-13.3c1.2-4.1,3.2-7.8,5.5-11
		c2.6-3.2,5.5-5.5,9.6-7.5c3.8-1.7,8.1-2.6,13.3-2.6c1.7,0,3.5,0.3,5.5,0.6c2,0.3,3.8,0.9,5.8,1.7c2,0.9,3.8,1.7,5.5,3.2
		c1.7,1.4,3.2,2.9,4.3,4.9h0.3v-33.3h10.7v90.9H621.3z M582.5,313.1c0.9,2.9,2,5.5,3.8,7.8c1.7,2.3,3.8,4.1,6.4,5.5s5.5,2,9,2
		c3.8,0,6.7-0.6,9.3-2s4.6-3.2,6.4-5.8c1.7-2.3,2.9-4.9,3.5-7.8s1.2-6.1,1.2-9c0-3.2-0.3-6.4-1.2-9.3c-0.9-2.9-2-5.8-3.8-7.8
		c-1.7-2.3-3.8-4.1-6.4-5.5s-5.8-2-9.6-2s-6.7,0.6-9.3,2s-4.6,3.5-6.1,5.8s-2.6,5.2-3.2,8.1c-0.6,3.2-1.2,6.1-1.2,9.6
		C581.3,307.3,581.6,310.2,582.5,313.1z"/>
	<path fill="#FFFFFF" d="M695.4,332.2c-4.9,3.8-11,5.5-18.5,5.5c-5.2,0-9.8-0.9-13.6-2.6s-7.2-4.1-9.8-7.2c-2.6-3.2-4.6-6.7-5.8-11
		c-1.4-4.3-2-9-2.3-13.9c0-4.9,0.9-9.6,2.3-13.6s3.8-7.8,6.4-10.7c2.9-3.2,6.1-5.5,9.8-7.2s7.8-2.6,12.5-2.6
		c5.8,0,10.7,1.2,14.5,3.8c3.8,2.3,6.9,5.5,9.3,9.3c2.3,3.8,4.1,7.8,4.9,12.2c0.9,4.3,1.2,8.7,1.2,12.7h-49.2c0,2.9,0.3,5.5,1.2,8.1
		c0.9,2.6,2,4.9,3.8,6.9c1.7,2,3.8,3.5,6.4,4.6s5.8,1.7,9.3,1.7c4.6,0,8.4-1.2,11.3-3.2s4.9-5.2,5.8-9.6h10.7
		C703.5,322.9,700.3,328.4,695.4,332.2z M692.8,289.9c-0.9-2.3-2.3-4.3-4.1-5.8c-1.7-1.7-3.5-2.9-5.8-4.1c-2.3-0.9-4.6-1.4-7.5-1.4
		s-5.2,0.6-7.5,1.4c-2.3,0.9-4.1,2.3-5.8,4.1c-1.7,1.7-2.9,3.8-3.8,5.8c-0.9,2.3-1.4,4.6-1.7,7.2h37.9
		C694.2,294.5,693.7,292.2,692.8,289.9z"/>
	<path fill="#FFFFFF" d="M778.5,245.6v10.1H731v29h41.7v10.1H731v41.7h-12.2v-90.9H778.5z"/>
	<path fill="#FFFFFF" d="M836.7,332.2c-4.9,3.8-11,5.5-18.5,5.5c-5.2,0-9.8-0.9-13.6-2.6c-3.8-1.7-7.2-4.1-9.8-7.2
		c-2.6-3.2-4.6-6.7-5.8-11c-1.4-4.3-2-9-2.3-13.9c0-4.9,0.9-9.6,2.3-13.6c1.4-4.1,3.8-7.8,6.4-10.7c2.9-3.2,6.1-5.5,9.8-7.2
		c3.8-1.7,7.8-2.6,12.5-2.6c5.8,0,10.7,1.2,14.5,3.8c3.8,2.3,6.9,5.5,9.3,9.3c2.3,3.8,4.1,7.8,4.9,12.2c0.9,4.3,1.2,8.7,1.2,12.7
		h-49.2c0,2.9,0.3,5.5,1.2,8.1c0.9,2.6,2,4.9,3.8,6.9c1.7,2,3.8,3.5,6.4,4.6c2.6,1.2,5.8,1.7,9.3,1.7c4.6,0,8.4-1.2,11.3-3.2
		s4.9-5.2,5.8-9.6h10.7C844.8,322.9,841.6,328.4,836.7,332.2z M834.1,289.9c-0.9-2.3-2.3-4.3-4.1-5.8c-1.7-1.7-3.5-2.9-5.8-4.1
		c-2.3-0.9-4.6-1.4-7.5-1.4s-5.2,0.6-7.5,1.4c-2.3,0.9-4.1,2.3-5.8,4.1c-1.7,1.7-2.9,3.8-3.8,5.8c-0.9,2.3-1.4,4.6-1.7,7.2h37.9
		C835.8,294.5,835.3,292.2,834.1,289.9z"/>
	<path fill="#FFFFFF" d="M866.8,321.7c1.2,1.7,2.3,2.9,4.1,4.1c1.7,0.9,3.5,1.7,5.5,2c2,0.3,4.3,0.6,6.4,0.6c1.7,0,3.5,0,5.2-0.3
		c1.7-0.3,3.5-0.6,5.2-1.4c1.4-0.6,2.9-1.7,3.8-2.9c1.2-1.4,1.4-2.9,1.4-4.9c0-2.9-1.2-4.9-3.2-6.4c-2-1.4-4.6-2.6-7.8-3.5
		c-3.2-0.9-6.7-1.7-10.4-2.3s-7.2-1.7-10.4-3.2c-3.2-1.4-5.8-3.2-7.8-5.5c-2-2.3-3.2-5.8-3.2-9.8c0-3.2,0.9-6.1,2.3-8.4
		c1.4-2.3,3.5-4.3,5.8-5.8c2.3-1.4,4.9-2.6,7.8-3.2c2.9-0.6,5.8-1.2,8.7-1.2c3.8,0,7.2,0.3,10.4,0.9c3.2,0.6,5.8,1.7,8.4,3.2
		c2.3,1.4,4.3,3.8,5.8,6.4c1.4,2.6,2.3,6.1,2.6,10.1h-10.7c-0.3-2-0.6-3.8-1.7-5.2c-0.9-1.4-2-2.6-3.5-3.5s-2.9-1.4-4.6-1.7
		s-3.5-0.6-5.2-0.6c-1.7,0-3.2,0-4.9,0.3c-1.7,0.3-3.2,0.6-4.6,1.4s-2.6,1.4-3.2,2.6c-0.9,1.2-1.2,2.3-1.2,4.1s0.6,3.5,2,4.6
		s2.9,2.3,4.9,3.2c2,0.9,4.3,1.4,6.9,2s5.2,1.2,7.5,1.7c2.6,0.6,5.5,1.4,7.8,2c2.6,0.9,4.9,2,6.9,3.5c2,1.4,3.5,3.2,4.9,5.2
		c1.2,2,1.7,4.6,1.7,7.8c0,4.1-0.9,7.2-2.6,9.8c-1.7,2.6-3.8,4.6-6.4,6.4c-2.6,1.7-5.8,2.6-9,3.5c-3.5,0.6-6.7,0.9-10.1,0.9
		c-3.8,0-7.2-0.3-10.4-1.2c-3.2-0.9-6.4-2-8.7-3.8c-2.6-1.7-4.6-4.1-6.1-6.9s-2.3-6.4-2.6-10.4h10.7
		C865.4,318,865.9,320,866.8,321.7z"/>
	<path fill="#FFFFFF" d="M950.5,270.5v9.6h-13v40.8c0,1.2,0,2.3,0.3,3.2s0.6,1.4,1.2,1.7s1.4,0.6,2.6,0.9c1.2,0,2.3,0.3,4.1,0.3h4.9
		v9.6h-8.4c-2.9,0-5.2-0.3-7.2-0.6c-2-0.3-3.5-1.2-4.9-2s-2-2.3-2.6-4.3c-0.6-1.7-0.9-4.3-0.9-7.2v-42.3h-11.3v-9.6h11.3v-19.7h10.7
		v19.7H950.5z"/>
	<path fill="#FFFFFF" d="M996.5,265.3c1.2-3.8,2.9-7.2,5.5-10.1c2.6-2.9,5.5-5.2,9.3-6.7c3.8-1.7,8.1-2.3,12.7-2.3
		c3.8,0,7.5,0.6,11,1.7s6.4,2.9,9,4.9s4.6,4.9,6.1,8.1s2.3,6.9,2.3,11.3c0,4.1-0.6,7.5-1.7,10.4c-1.2,3.2-2.9,5.8-4.9,8.1
		c-2,2.3-4.3,4.6-6.9,6.7c-2.6,2-5.2,3.8-8.1,5.5s-5.5,3.5-8.4,4.9c-2.9,1.7-5.5,3.5-7.8,5.2c-2.3,1.7-4.3,3.8-6.1,6.1
		c-1.7,2-2.6,4.6-3.2,7.5h46.3v9.6h-59.1c0.3-5.2,1.4-9.8,2.9-13.6c1.4-3.8,3.5-6.9,5.8-9.8s4.9-5.2,7.8-7.2s5.8-4.1,9-6.1
		c3.8-2.3,7.2-4.6,10.1-6.7s5.2-4.1,7.2-6.1c2-2,3.5-4.3,4.3-6.7c0.9-2.3,1.4-5.2,1.4-8.4c0-2.3-0.6-4.6-1.4-6.7
		c-0.9-2-2.3-3.8-3.8-5.2s-3.5-2.6-5.5-3.2c-2-0.6-4.3-1.2-6.7-1.2c-3.2,0-5.8,0.6-8.1,2c-2.3,1.4-4.1,2.9-5.5,5.2
		c-1.4,2-2.6,4.6-3.2,7.2c-0.6,2.6-0.9,5.5-0.9,8.1h-10.7C994.8,273.4,995.4,269.3,996.5,265.3z"/>
	<path fill="#FFFFFF" d="M1066,281.8c0.3-3.5,0.6-6.9,1.2-10.4s1.7-6.7,2.9-9.6c1.2-3.2,2.9-5.8,5.2-8.1c2.3-2.3,4.9-4.1,8.4-5.5
		c3.5-1.4,7.2-2,12.2-2c4.9,0,8.7,0.6,12.2,2c3.5,1.4,6.1,3.2,8.4,5.5c2.3,2.3,4.1,4.9,5.2,8.1s2.3,6.4,2.9,9.6
		c0.6,3.5,1.2,6.9,1.2,10.4c0.3,3.5,0.3,6.9,0.3,10.4c0,3.2,0,6.7-0.3,10.4c-0.3,3.5-0.6,6.9-1.2,10.4c-0.6,3.5-1.7,6.7-2.9,9.6
		s-2.9,5.8-5.2,7.8c-2.3,2.3-4.9,4.1-8.4,5.5c-3.2,1.4-7.2,2-12.2,2c-4.6,0-8.7-0.6-12.2-2s-6.1-3.2-8.4-5.5
		c-2.3-2.3-4.1-4.9-5.2-7.8c-1.2-2.9-2.3-6.1-2.9-9.6c-0.6-3.5-1.2-6.9-1.2-10.4c-0.3-3.5-0.3-6.9-0.3-10.4S1065.7,285.3,1066,281.8
		z M1077.6,303.5c0.3,4.3,0.9,8.1,2,11.9c1.2,3.8,2.9,6.9,5.5,9.3c2.6,2.6,6.1,3.8,10.7,3.8s8.1-1.2,10.7-3.8s4.3-5.8,5.5-9.3
		c1.2-3.8,1.7-7.5,2-11.9c0.3-4.3,0.3-8.1,0.3-11.3c0-2.3,0-4.6,0-7.2s-0.3-5.2-0.6-8.1s-0.9-5.2-1.7-7.8c-0.6-2.6-1.7-4.6-3.2-6.7
		s-3.2-3.5-5.2-4.6s-4.6-1.7-7.8-1.7s-5.5,0.6-7.8,1.7c-2,1.2-3.8,2.6-5.2,4.6s-2.6,4.1-3.2,6.7s-1.2,5.2-1.7,7.8s-0.6,5.2-0.6,8.1
		s0,5.2,0,7.2C1077,295.4,1077.3,299.2,1077.6,303.5z"/>
	<path fill="#FFFFFF" d="M1165.6,336.5v-64.9h-23.5V263c3.2,0,6.1-0.3,9-0.6c2.9-0.6,5.5-1.4,7.8-2.6s4.3-2.9,5.8-5.2
		c1.7-2.3,2.6-4.9,3.2-8.4h8.4v90.3H1165.6z"/>
	<path fill="#FFFFFF" d="M1267.6,305.8v9.6h-12.2v21.1H1245v-21.1h-39.7V305l41.1-58.8h8.7v59.6L1267.6,305.8z M1245,261.5
		L1245,261.5l-30.4,44.3h30.4V261.5z"/>
</g>
<rect x="359.3" y="246" fill="#FFFFFF" width="10" height="290.7"/>
<g>
	<path fill="#FFFFFF" d="M456.7,371.4v5.8h-24.9v65.6H425v-65.6h-24.8v-5.8H456.7z"/>
	<path fill="#FFFFFF" d="M488.9,391.9c3,1.5,5.6,3.4,7.6,5.9c2.1,2.5,3.6,5.3,4.7,8.6c1.1,3.3,1.6,6.8,1.6,10.6
		c0,3.7-0.5,7.2-1.6,10.5c-1.1,3.3-2.6,6.2-4.7,8.6c-2.1,2.5-4.6,4.4-7.6,5.9c-3,1.4-6.5,2.1-10.5,2.1c-3.9,0-7.4-0.7-10.4-2.1
		c-3-1.4-5.6-3.4-7.6-5.9c-2.1-2.5-3.6-5.3-4.7-8.6c-1.1-3.3-1.6-6.8-1.6-10.5c0-3.7,0.5-7.2,1.6-10.6c1.1-3.3,2.6-6.2,4.7-8.6
		c2.1-2.5,4.6-4.4,7.6-5.9c3-1.5,6.5-2.2,10.4-2.2C482.4,389.7,485.9,390.5,488.9,391.9z M470.6,396.9c-2.3,1.3-4.1,2.9-5.6,5
		c-1.5,2.1-2.6,4.4-3.4,7c-0.8,2.6-1.1,5.3-1.1,8.1c0,2.7,0.4,5.4,1.1,8c0.8,2.6,1.9,5,3.4,7c1.5,2.1,3.4,3.7,5.6,5
		c2.3,1.3,4.9,1.9,7.9,1.9s5.6-0.6,7.9-1.9c2.3-1.3,4.1-2.9,5.6-5c1.5-2.1,2.6-4.4,3.4-7c0.8-2.6,1.1-5.3,1.1-8
		c0-2.7-0.4-5.4-1.1-8.1c-0.8-2.6-1.9-5-3.4-7c-1.5-2.1-3.4-3.7-5.6-5c-2.3-1.3-4.9-1.9-7.9-1.9S472.8,395.7,470.6,396.9z"/>
	<path fill="#FFFFFF" d="M560.1,448.9c-0.8,3.1-2.2,5.7-4,7.8c-1.8,2.1-4.2,3.8-7,4.9c-2.9,1.1-6.5,1.7-10.7,1.7
		c-2.6,0-5.1-0.3-7.6-0.9c-2.5-0.6-4.7-1.5-6.7-2.8c-2-1.3-3.6-2.9-4.9-4.8c-1.3-2-2-4.3-2.2-7.1h6.3c0.3,1.9,1,3.6,1.9,4.9
		c1,1.3,2.1,2.3,3.5,3.1c1.4,0.8,2.9,1.4,4.6,1.8c1.7,0.4,3.4,0.6,5.1,0.6c5.9,0,10.1-1.7,12.7-5c2.6-3.3,3.9-8.1,3.9-14.4v-7h-0.2
		c-1.5,3.2-3.6,5.8-6.5,7.7c-2.8,1.9-6.2,2.9-10,2.9c-4.1,0-7.7-0.7-10.6-2c-2.9-1.4-5.4-3.2-7.2-5.6c-1.9-2.4-3.3-5.2-4.2-8.5
		c-0.9-3.2-1.3-6.7-1.3-10.4c0-3.5,0.5-6.9,1.5-10c1-3.2,2.5-5.9,4.5-8.3c2-2.4,4.4-4.2,7.3-5.6c2.9-1.4,6.2-2.1,10-2.1
		c1.9,0,3.8,0.3,5.5,0.8c1.7,0.5,3.2,1.3,4.6,2.2c1.4,1,2.7,2.1,3.8,3.3c1.1,1.3,2,2.6,2.6,4h0.2v-8.9h6.3v47.4
		C561.4,442.4,560.9,445.9,560.1,448.9z M545.7,435.2c2.1-1.2,3.8-2.7,5.2-4.6c1.4-1.9,2.4-4.1,3.1-6.5c0.7-2.5,1-5,1-7.6
		c0-2.5-0.3-5.1-0.9-7.6c-0.6-2.5-1.6-4.8-2.9-6.9c-1.3-2.1-3-3.7-5.1-5c-2.1-1.3-4.7-1.9-7.7-1.9s-5.6,0.6-7.7,1.8
		c-2.1,1.2-3.9,2.8-5.3,4.8s-2.4,4.3-3,6.9c-0.6,2.6-1,5.2-1,7.8c0,2.6,0.3,5.1,1,7.6c0.7,2.5,1.7,4.6,3.1,6.5
		c1.4,1.9,3.2,3.4,5.3,4.6c2.1,1.2,4.7,1.8,7.6,1.8C541.2,436.9,543.6,436.3,545.7,435.2z"/>
	<path fill="#FFFFFF" d="M583.5,425.8c0.6,2.4,1.7,4.6,3.1,6.5c1.4,1.9,3.2,3.5,5.3,4.8c2.1,1.3,4.7,1.9,7.7,1.9
		c4.6,0,8.2-1.2,10.8-3.6c2.6-2.4,4.4-5.6,5.4-9.6h6.3c-1.3,5.9-3.8,10.4-7.4,13.6c-3.6,3.2-8.6,4.8-15.1,4.8
		c-4.1,0-7.6-0.7-10.6-2.1c-3-1.4-5.4-3.4-7.2-5.9c-1.9-2.5-3.2-5.4-4.1-8.7c-0.9-3.3-1.4-6.8-1.4-10.4c0-3.4,0.5-6.7,1.4-10
		c0.9-3.3,2.3-6.2,4.1-8.8c1.9-2.6,4.3-4.6,7.2-6.2c3-1.6,6.5-2.4,10.6-2.4c4.1,0,7.7,0.8,10.6,2.5c2.9,1.7,5.3,3.9,7.2,6.6
		c1.8,2.7,3.1,5.8,3.9,9.3c0.8,3.5,1.1,7,1,10.6h-39.7C582.6,421,582.9,423.3,583.5,425.8z M614.7,406.5c-0.8-2.2-1.8-4.2-3.2-5.9
		c-1.4-1.7-3.1-3.1-5.1-4.1c-2-1-4.3-1.5-6.8-1.5c-2.6,0-4.9,0.5-6.9,1.5c-2,1-3.7,2.4-5.1,4.1c-1.4,1.7-2.5,3.7-3.4,5.9
		c-0.8,2.2-1.4,4.5-1.6,6.8H616C615.9,411,615.5,408.7,614.7,406.5z"/>
	<path fill="#FFFFFF" d="M656.8,391.2v5.3h-10.5v34.8c0,2.1,0.3,3.7,0.9,4.8c0.6,1.2,2,1.8,4.2,2c1.8,0,3.6-0.1,5.4-0.3v5.3
		c-0.9,0-1.9,0-2.8,0.1c-0.9,0.1-1.9,0.1-2.8,0.1c-4.2,0-7.1-0.8-8.8-2.5c-1.7-1.6-2.5-4.7-2.4-9v-35.3h-9v-5.3h9v-15.5h6.3v15.5
		H656.8z"/>
	<path fill="#FFFFFF" d="M677.5,371.4v28.7h0.2c1.2-3.1,3.3-5.7,6.4-7.5c3.1-1.9,6.4-2.9,10.1-2.9c3.6,0,6.6,0.5,9.1,1.4
		c2.4,0.9,4.4,2.2,5.8,4c1.5,1.7,2.5,3.8,3.1,6.2c0.6,2.5,0.9,5.2,0.9,8.3v33.2h-6.3v-32.2c0-2.2-0.2-4.2-0.6-6.2
		c-0.4-1.9-1.1-3.5-2.1-4.9c-1-1.4-2.3-2.5-4-3.3c-1.7-0.8-3.8-1.2-6.4-1.2c-2.5,0-4.8,0.4-6.8,1.3c-2,0.9-3.6,2.1-5,3.7
		c-1.4,1.6-2.4,3.4-3.2,5.6c-0.8,2.2-1.2,4.5-1.2,7v30.1h-6.3v-71.4H677.5z"/>
	<path fill="#FFFFFF" d="M735.2,425.8c0.6,2.4,1.6,4.6,3,6.5c1.4,1.9,3.2,3.5,5.3,4.8c2.1,1.3,4.7,1.9,7.7,1.9
		c4.6,0,8.2-1.2,10.8-3.6c2.6-2.4,4.4-5.6,5.4-9.6h6.3c-1.3,5.9-3.8,10.4-7.3,13.6c-3.6,3.2-8.6,4.8-15.2,4.8
		c-4.1,0-7.6-0.7-10.5-2.1c-3-1.4-5.4-3.4-7.2-5.9c-1.9-2.5-3.2-5.4-4.2-8.7c-0.9-3.3-1.3-6.8-1.3-10.4c0-3.4,0.5-6.7,1.3-10
		c0.9-3.3,2.3-6.2,4.2-8.8c1.9-2.6,4.3-4.6,7.2-6.2c3-1.6,6.5-2.4,10.5-2.4c4.1,0,7.7,0.8,10.6,2.5c2.9,1.7,5.3,3.9,7.2,6.6
		c1.8,2.7,3.2,5.8,4,9.3s1.1,7,1,10.6h-39.7C734.2,421,734.6,423.3,735.2,425.8z M766.4,406.5c-0.8-2.2-1.9-4.2-3.2-5.9
		c-1.4-1.7-3.1-3.1-5.1-4.1c-2-1-4.3-1.5-6.8-1.5c-2.6,0-4.9,0.5-6.9,1.5c-2,1-3.7,2.4-5.1,4.1s-2.5,3.7-3.3,5.9
		c-0.8,2.2-1.4,4.5-1.7,6.8h33.4C767.6,411,767.2,408.7,766.4,406.5z"/>
	<path fill="#FFFFFF" d="M793.7,391.2v12.1h0.2c1.6-4.2,4.1-7.4,7.5-9.7c3.4-2.3,7.4-3.3,12-3.1v6.3c-2.9-0.1-5.5,0.2-7.8,1.1
		c-2.3,0.9-4.4,2.2-6.1,3.9c-1.7,1.7-3,3.6-3.9,6c-0.9,2.3-1.4,4.8-1.4,7.5v27.5h-6.3v-51.6H793.7z"/>
	<path fill="#FFFFFF" d="M429.7,488.5v46.3h-6.3v-46.3h-8.8v-5.3h8.8v-4.7c0-2.2,0.2-4.2,0.5-6.1c0.3-1.9,1-3.5,1.9-4.8
		c0.9-1.3,2.2-2.4,3.9-3.1c1.6-0.7,3.7-1.1,6.2-1.1c0.9,0,1.8,0,2.6,0.1c0.8,0.1,1.7,0.2,2.7,0.3v5.4c-0.9-0.1-1.7-0.2-2.4-0.4
		c-0.7-0.1-1.5-0.1-2.2-0.1c-1.7,0-3.1,0.3-4,0.8c-0.9,0.5-1.6,1.2-2.1,2.2c-0.4,0.9-0.7,1.9-0.8,3.1c-0.1,1.2-0.1,2.5-0.1,3.9v4.5
		h10.2v5.3H429.7z"/>
	<path fill="#FFFFFF" d="M483.6,483.9c3,1.5,5.6,3.4,7.6,5.9c2.1,2.5,3.6,5.3,4.7,8.7c1.1,3.3,1.6,6.8,1.6,10.5
		c0,3.7-0.5,7.2-1.6,10.5c-1.1,3.3-2.6,6.2-4.7,8.7c-2.1,2.5-4.6,4.4-7.6,5.8c-3,1.4-6.5,2.2-10.5,2.2c-3.9,0-7.4-0.7-10.4-2.2
		c-3-1.4-5.6-3.4-7.6-5.8c-2.1-2.5-3.6-5.4-4.7-8.7c-1.1-3.3-1.6-6.8-1.6-10.5c0-3.7,0.5-7.2,1.6-10.5c1.1-3.3,2.6-6.2,4.7-8.7
		c2.1-2.5,4.6-4.4,7.6-5.9c3-1.5,6.5-2.2,10.4-2.2C477.1,481.7,480.6,482.5,483.6,483.9z M465.3,488.9c-2.3,1.3-4.1,2.9-5.6,5
		c-1.5,2.1-2.6,4.4-3.4,7.1c-0.8,2.6-1.1,5.3-1.1,8c0,2.7,0.4,5.4,1.1,8c0.8,2.6,1.9,5,3.4,7c1.5,2.1,3.4,3.7,5.6,5
		c2.3,1.3,4.9,1.9,7.9,1.9s5.6-0.6,7.9-1.9c2.3-1.3,4.1-2.9,5.6-5c1.5-2.1,2.6-4.4,3.4-7c0.8-2.6,1.1-5.3,1.1-8c0-2.7-0.4-5.4-1.1-8
		c-0.8-2.6-1.9-5-3.4-7.1c-1.5-2.1-3.4-3.7-5.6-5c-2.3-1.3-4.9-1.9-7.9-1.9S467.5,487.7,465.3,488.9z"/>
	<path fill="#FFFFFF" d="M518.3,483.2v12.1h0.2c1.6-4.2,4.1-7.4,7.5-9.7c3.4-2.3,7.4-3.3,12-3.1v6.3c-2.9-0.1-5.5,0.2-7.8,1.2
		c-2.3,0.9-4.3,2.2-6,3.8c-1.7,1.7-3,3.7-4,6c-0.9,2.3-1.4,4.8-1.4,7.5v27.5h-6.3v-51.6H518.3z"/>
	<path fill="#FFFFFF" d="M584.1,491.2c1.1-2.2,2.5-4,4.3-5.4c1.8-1.4,4-2.4,6.5-3.1c2.5-0.7,5.2-1,8.2-1c2.3,0,4.5,0.2,6.8,0.6
		c2.3,0.4,4.3,1.2,6.1,2.5c1.8,1.2,3.3,2.9,4.4,5c1.1,2.2,1.7,5,1.7,8.5v27.4c0,2.5,1.2,3.8,3.7,3.8c0.7,0,1.4-0.1,2-0.4v5.3
		c-0.7,0.1-1.4,0.2-2,0.3c-0.6,0.1-1.3,0.1-2.2,0.1c-1.6,0-2.9-0.2-3.8-0.7c-1-0.4-1.7-1-2.2-1.8c-0.5-0.8-0.9-1.8-1-2.8
		c-0.2-1.1-0.2-2.3-0.2-3.7h-0.2c-1.1,1.7-2.3,3.2-3.5,4.5c-1.2,1.3-2.5,2.4-3.9,3.2c-1.4,0.9-3.1,1.5-4.9,2c-1.8,0.5-4,0.7-6.5,0.7
		c-2.4,0-4.7-0.3-6.8-0.9c-2.1-0.6-3.9-1.5-5.5-2.7c-1.6-1.2-2.8-2.8-3.7-4.7c-0.9-1.9-1.3-4.2-1.3-6.8c0-3.6,0.8-6.4,2.4-8.5
		c1.6-2,3.7-3.6,6.4-4.7c2.6-1.1,5.6-1.8,8.9-2.2c3.3-0.4,6.7-0.8,10-1.2c1.3-0.1,2.5-0.3,3.5-0.5s1.8-0.5,2.5-1
		c0.7-0.5,1.2-1.2,1.6-2c0.4-0.9,0.5-2,0.5-3.4c0-2.1-0.4-3.9-1-5.2c-0.7-1.4-1.7-2.5-2.9-3.2c-1.2-0.8-2.7-1.3-4.3-1.6
		c-1.6-0.3-3.4-0.5-5.2-0.5c-4,0-7.3,1-9.8,2.8c-2.5,1.9-3.9,5-4,9.2h-6.3C582.4,496,583,493.4,584.1,491.2z M615.6,506.6
		c-0.4,0.7-1.2,1.3-2.3,1.6c-1.1,0.3-2.1,0.6-3,0.7c-2.7,0.5-5.4,0.9-8.2,1.2c-2.8,0.4-5.4,0.9-7.8,1.7c-2.3,0.7-4.2,1.8-5.8,3.2
		c-1.5,1.4-2.2,3.3-2.2,5.8c0,1.6,0.3,3,1,4.2c0.6,1.2,1.5,2.3,2.5,3.2c1.1,0.9,2.3,1.6,3.7,2c1.4,0.5,2.8,0.7,4.3,0.7
		c2.4,0,4.7-0.4,6.9-1.1c2.2-0.7,4.1-1.8,5.8-3.2c1.6-1.4,2.9-3.1,3.9-5.1c1-2,1.5-4.3,1.5-6.8v-8.2H615.6z"/>
	<path fill="#FFFFFF" d="M679.8,463.4V493h0.2c0.7-1.9,1.6-3.5,2.9-4.9c1.2-1.4,2.6-2.6,4.2-3.5c1.6-1,3.3-1.7,5.2-2.1
		c1.9-0.5,3.7-0.7,5.6-0.7c3.9,0,7.3,0.7,10.2,2.2c2.9,1.5,5.3,3.4,7.2,5.9c1.9,2.5,3.4,5.4,4.3,8.7c0.9,3.3,1.4,6.8,1.4,10.5
		c0,3.7-0.5,7.1-1.4,10.5c-0.9,3.3-2.4,6.2-4.3,8.7c-1.9,2.5-4.4,4.5-7.2,5.9c-2.9,1.4-6.3,2.2-10.2,2.2c-4.2,0-8-1-11.2-2.9
		s-5.7-4.7-7.2-8.3h-0.2v9.8h-5.8v-71.4H679.8z M713.8,501.1c-0.6-2.6-1.6-5-3-7c-1.4-2.1-3.1-3.8-5.2-5c-2.1-1.3-4.7-2-7.7-2
		c-3.3,0-6.2,0.6-8.5,2c-2.3,1.3-4.2,3-5.6,5c-1.4,2.1-2.5,4.4-3.1,7c-0.6,2.6-1,5.3-1,8c0,2.7,0.3,5.3,1,8c0.6,2.6,1.7,5,3.1,7
		c1.4,2.1,3.3,3.8,5.6,5s5.1,2,8.5,2c3,0,5.6-0.7,7.7-2c2.1-1.3,3.9-3,5.2-5c1.4-2.1,2.4-4.4,3-7c0.6-2.6,0.9-5.3,0.9-8
		C714.8,506.4,714.4,503.7,713.8,501.1z"/>
	<path fill="#FFFFFF" d="M741,517.8c0.6,2.4,1.7,4.6,3.1,6.5c1.4,1.9,3.2,3.5,5.3,4.8c2.1,1.3,4.7,1.9,7.7,1.9
		c4.6,0,8.2-1.2,10.8-3.6c2.6-2.4,4.4-5.6,5.4-9.6h6.3c-1.3,5.9-3.8,10.4-7.4,13.6c-3.6,3.2-8.6,4.8-15.1,4.8
		c-4.1,0-7.6-0.7-10.6-2.2c-3-1.4-5.4-3.4-7.2-5.9c-1.9-2.5-3.2-5.4-4.1-8.7c-0.9-3.3-1.4-6.8-1.4-10.5c0-3.4,0.5-6.7,1.4-10
		c0.9-3.3,2.3-6.2,4.1-8.8c1.9-2.6,4.3-4.6,7.2-6.2c3-1.6,6.5-2.3,10.6-2.3c4.1,0,7.7,0.8,10.6,2.5c2.9,1.7,5.3,3.8,7.2,6.5
		c1.8,2.7,3.1,5.8,3.9,9.3c0.8,3.5,1.1,7,1,10.7h-39.7C740.1,513,740.4,515.3,741,517.8z M772.2,498.5c-0.8-2.2-1.8-4.2-3.2-5.9
		c-1.4-1.7-3.1-3.1-5.1-4.1c-2-1-4.3-1.5-6.8-1.5c-2.6,0-4.9,0.5-6.9,1.5c-2,1-3.7,2.4-5.1,4.1c-1.4,1.7-2.5,3.7-3.4,5.9
		c-0.8,2.2-1.4,4.5-1.6,6.8h33.4C773.4,503,773,500.7,772.2,498.5z"/>
	<path fill="#FFFFFF" d="M814.3,483.2v5.3h-10.5v34.8c0,2.1,0.3,3.7,0.9,4.8c0.6,1.2,2,1.8,4.2,2c1.8,0,3.6-0.1,5.4-0.3v5.3
		c-0.9,0-1.9,0-2.8,0.1c-0.9,0.1-1.9,0.1-2.8,0.1c-4.2,0-7.1-0.8-8.8-2.5c-1.7-1.6-2.5-4.6-2.4-9v-35.3h-9v-5.3h9v-15.5h6.3v15.5
		H814.3z"/>
	<path fill="#FFFFFF" d="M849.4,483.2v5.3h-10.5v34.8c0,2.1,0.3,3.7,0.8,4.8c0.6,1.2,2,1.8,4.2,2c1.8,0,3.6-0.1,5.4-0.3v5.3
		c-0.9,0-1.9,0-2.8,0.1c-0.9,0.1-1.9,0.1-2.8,0.1c-4.2,0-7.1-0.8-8.8-2.5c-1.7-1.6-2.5-4.6-2.4-9v-35.3h-9v-5.3h9v-15.5h6.3v15.5
		H849.4z"/>
	<path fill="#FFFFFF" d="M868.6,517.8c0.6,2.4,1.6,4.6,3,6.5c1.4,1.9,3.2,3.5,5.3,4.8c2.1,1.3,4.7,1.9,7.7,1.9
		c4.6,0,8.2-1.2,10.8-3.6c2.6-2.4,4.4-5.6,5.4-9.6h6.3c-1.3,5.9-3.8,10.4-7.3,13.6c-3.6,3.2-8.6,4.8-15.2,4.8
		c-4.1,0-7.6-0.7-10.5-2.2c-3-1.4-5.4-3.4-7.2-5.9c-1.9-2.5-3.2-5.4-4.2-8.7c-0.9-3.3-1.3-6.8-1.3-10.5c0-3.4,0.5-6.7,1.3-10
		c0.9-3.3,2.3-6.2,4.2-8.8c1.9-2.6,4.3-4.6,7.2-6.2c3-1.6,6.5-2.3,10.5-2.3c4.1,0,7.7,0.8,10.6,2.5c2.9,1.7,5.3,3.8,7.2,6.5
		s3.2,5.8,4,9.3c0.8,3.5,1.1,7,1,10.7h-39.7C867.7,513,868,515.3,868.6,517.8z M899.8,498.5c-0.8-2.2-1.8-4.2-3.2-5.9
		c-1.4-1.7-3.1-3.1-5.1-4.1c-2-1-4.3-1.5-6.8-1.5c-2.6,0-4.9,0.5-6.9,1.5c-2,1-3.7,2.4-5.1,4.1c-1.4,1.7-2.5,3.7-3.3,5.9
		c-0.8,2.2-1.4,4.5-1.7,6.8h33.4C901,503,900.6,500.7,899.8,498.5z"/>
	<path fill="#FFFFFF" d="M927.2,483.2v12.1h0.2c1.6-4.2,4.1-7.4,7.5-9.7c3.4-2.3,7.4-3.3,12-3.1v6.3c-2.9-0.1-5.5,0.2-7.8,1.2
		c-2.3,0.9-4.4,2.2-6,3.8c-1.7,1.7-3,3.7-4,6c-0.9,2.3-1.4,4.8-1.4,7.5v27.5h-6.3v-51.6H927.2z"/>
	<path fill="#FFFFFF" d="M993,463.4l16.2,62.5h0.2l17.4-62.5h8.5l17.5,62.5h0.2l16.3-62.5h6.8l-19.7,71.4h-7.2l-18.1-63.9h-0.2
		l-18,63.9h-7.4l-19.8-71.4H993z"/>
	<path fill="#FFFFFF" d="M1090.7,517.8c0.6,2.4,1.6,4.6,3,6.5c1.4,1.9,3.2,3.5,5.3,4.8c2.1,1.3,4.7,1.9,7.7,1.9
		c4.6,0,8.2-1.2,10.8-3.6c2.6-2.4,4.4-5.6,5.4-9.6h6.3c-1.3,5.9-3.8,10.4-7.4,13.6c-3.6,3.2-8.6,4.8-15.1,4.8
		c-4.1,0-7.6-0.7-10.5-2.2c-3-1.4-5.4-3.4-7.2-5.9c-1.9-2.5-3.2-5.4-4.2-8.7c-0.9-3.3-1.3-6.8-1.3-10.5c0-3.4,0.4-6.7,1.3-10
		c0.9-3.3,2.3-6.2,4.2-8.8c1.9-2.6,4.3-4.6,7.2-6.2c3-1.6,6.5-2.3,10.5-2.3c4.1,0,7.7,0.8,10.6,2.5c2.9,1.7,5.3,3.8,7.2,6.5
		c1.8,2.7,3.1,5.8,4,9.3c0.8,3.5,1.1,7,1,10.7h-39.7C1089.8,513,1090.1,515.3,1090.7,517.8z M1121.9,498.5c-0.8-2.2-1.8-4.2-3.2-5.9
		c-1.4-1.7-3.1-3.1-5.1-4.1c-2-1-4.3-1.5-6.8-1.5c-2.6,0-4.9,0.5-6.9,1.5c-2,1-3.7,2.4-5.1,4.1c-1.4,1.7-2.5,3.7-3.4,5.9
		c-0.8,2.2-1.4,4.5-1.6,6.8h33.4C1123.1,503,1122.7,500.7,1121.9,498.5z"/>
	<path fill="#FFFFFF" d="M1149.8,463.4V493h0.2c0.7-1.9,1.6-3.5,2.8-4.9c1.2-1.4,2.7-2.6,4.2-3.5c1.6-1,3.3-1.7,5.2-2.1
		c1.9-0.5,3.7-0.7,5.6-0.7c3.9,0,7.3,0.7,10.2,2.2c2.9,1.5,5.3,3.4,7.2,5.9c1.9,2.5,3.4,5.4,4.3,8.7c0.9,3.3,1.4,6.8,1.4,10.5
		c0,3.7-0.5,7.1-1.4,10.5c-0.9,3.3-2.4,6.2-4.3,8.7c-1.9,2.5-4.4,4.5-7.2,5.9c-2.9,1.4-6.3,2.2-10.2,2.2c-4.2,0-8-1-11.2-2.9
		c-3.3-1.9-5.7-4.7-7.2-8.3h-0.2v9.8h-5.8v-71.4H1149.8z M1183.8,501.1c-0.6-2.6-1.6-5-3-7c-1.4-2.1-3.1-3.8-5.2-5
		c-2.1-1.3-4.7-2-7.7-2c-3.3,0-6.2,0.6-8.5,2c-2.3,1.3-4.2,3-5.6,5c-1.4,2.1-2.5,4.4-3.1,7c-0.6,2.6-1,5.3-1,8c0,2.7,0.3,5.3,1,8
		c0.6,2.6,1.7,5,3.1,7c1.4,2.1,3.3,3.8,5.6,5s5.1,2,8.5,2c3,0,5.6-0.7,7.7-2c2.1-1.3,3.9-3,5.2-5c1.4-2.1,2.4-4.4,3-7
		c0.6-2.6,1-5.3,1-8C1184.8,506.4,1184.4,503.7,1183.8,501.1z"/>
</g>
</svg>
