<?xml version="1.0" encoding="utf-8"?>
<!-- Generator: Adobe Illustrator 17.1.0, SVG Export Plug-In . SVG Version: 6.00 Build 0)  -->
<!DOCTYPE svg PUBLIC "-//W3C//DTD SVG 1.1//EN" "http://www.w3.org/Graphics/SVG/1.1/DTD/svg11.dtd">
<svg version="1.1" id="Layer_1" xmlns="http://www.w3.org/2000/svg" xmlns:xlink="http://www.w3.org/1999/xlink" x="0px" y="0px"
	 viewBox="-315.8 700.6 1735.2 311.2" enable-background="new -315.8 700.6 1735.2 311.2" xml:space="preserve">
<g transform="matrix(1,0,0,0.99999897,-9.6901386,-462.70603)">
	<path fill="#464646" d="M199.3,1166.3c-35.2-0.5-60.4,0-74.6,2.1c-27.8,3.7-57.8,36.3-70.9,59.4c-18.4,27.3-38.4,86.2-68.3,86.2
		s-47.8-66.7-74.6-66.2c-26.8,0.5-40.5,61.5-81.4,61.5s-73-104-81.4-142.4h-54.1c9.5,59.9,33.6,105.6,55.7,137.7
		c11,15.8,23.1,30.5,37.3,42.6s24.2,20.5,51.5,21.5s52-44.1,68.8-44.7c15.8-0.5,20,15.8,14.2,26.3s-21.5,28.4-27.3,44.7
		c-7.9,23.1-10.5,44.1-10,58.8h55.7c0.5-28.9,18.4-80.4,47.3-82c16.8,0,47.3,29.4,56.2,41.5c8.9,12.1,16.3,23.6,32.6,32.6
		c16.3,9.5,38.9,10.5,61,2.6c28.9-10.5,43.6-37.8,52-63.6c8.9-25.7,12.6-54.6,15.8-82c3.2-27.3,3.7-43.6,6.8-60.4
		c0.5-3.7,2.1-16.3,13.7-18.9c12.1-2.6,94.1-0.5,94.1-0.5v-54.6C318.6,1166.3,234.5,1166.9,199.3,1166.3L199.3,1166.3z M156.8,1222
		c-4.7,48.9-5.8,97.7-21,143.4c-3.7,10.5-17.3,39.9-32.6,31c-2.1-1.1-7.9-7.4-16.3-18.4c-8.9-12.1-22.6-29.9-43.1-43.6
		c15.2-15.2,26.8-33.6,36.8-49.9c11.6-18.9,19.4-34.7,19.4-34.7l0,0C111.6,1227.8,136.3,1217.3,156.8,1222z"/>
</g>
<rect x="358.3" y="704" fill="#464646" width="10" height="290.7"/>
<g>
	<path fill="#464646" d="M460.1,829.4v5.8h-42.5V861h39.8v5.8h-39.8V895h43v5.8h-49.8v-71.4H460.1z"/>
	<path fill="#464646" d="M504.1,859.3c-0.7-1.4-1.7-2.6-3-3.6c-1.2-0.9-2.7-1.6-4.2-2c-1.6-0.4-3.3-0.6-5.1-0.6
		c-1.4,0-2.8,0.1-4.2,0.4c-1.4,0.3-2.8,0.8-3.9,1.5c-1.2,0.7-2.2,1.6-2.9,2.8c-0.7,1.1-1.1,2.5-1.1,4.2c0,1.4,0.3,2.6,1,3.5
		c0.7,1,1.6,1.8,2.6,2.5c1.1,0.7,2.2,1.2,3.5,1.7c1.3,0.4,2.4,0.8,3.5,1l8.4,1.9c1.8,0.3,3.6,0.8,5.3,1.4c1.8,0.7,3.3,1.6,4.7,2.8
		c1.4,1.1,2.5,2.5,3.4,4.2c0.9,1.7,1.3,3.6,1.3,5.9c0,2.8-0.6,5.2-1.9,7.1c-1.3,2-2.9,3.6-4.8,4.8c-2,1.2-4.2,2.1-6.7,2.6
		c-2.5,0.5-4.9,0.8-7.3,0.8c-6.1,0-11-1.4-14.8-4.3c-3.8-2.9-5.9-7.5-6.4-13.8h6.3c0.3,4.3,1.8,7.5,4.6,9.7
		c2.8,2.2,6.3,3.2,10.5,3.2c1.5,0,3.1-0.2,4.8-0.5c1.6-0.3,3.2-0.9,4.5-1.7c1.4-0.8,2.6-1.8,3.5-3c0.9-1.2,1.4-2.8,1.4-4.6
		c0-1.5-0.3-2.8-1-3.8c-0.6-1-1.5-1.9-2.5-2.6c-1.1-0.7-2.3-1.3-3.7-1.8c-1.4-0.5-2.8-0.9-4.2-1.2l-8.1-1.8c-2.1-0.5-4-1.2-5.7-1.9
		c-1.7-0.7-3.2-1.6-4.5-2.6c-1.3-1-2.3-2.3-3-3.8c-0.7-1.5-1.1-3.4-1.1-5.6c0-2.6,0.6-4.8,1.8-6.7c1.2-1.9,2.7-3.4,4.6-4.5
		c1.9-1.1,3.9-2,6.2-2.5c2.3-0.5,4.6-0.8,6.8-0.8c2.6,0,5,0.3,7.2,1c2.2,0.7,4.2,1.7,5.9,3.1c1.7,1.4,3,3.1,4,5.2s1.6,4.5,1.7,7.3
		h-6.3C505.3,862.4,504.9,860.7,504.1,859.3z"/>
	<path fill="#464646" d="M557.7,859.3c-0.7-1.4-1.7-2.6-3-3.6c-1.2-0.9-2.7-1.6-4.2-2c-1.6-0.4-3.3-0.6-5.1-0.6
		c-1.4,0-2.8,0.1-4.2,0.4c-1.4,0.3-2.8,0.8-3.9,1.5c-1.2,0.7-2.2,1.6-2.9,2.8c-0.7,1.1-1.1,2.5-1.1,4.2c0,1.4,0.3,2.6,1,3.5
		c0.7,1,1.6,1.8,2.6,2.5c1.1,0.7,2.2,1.2,3.5,1.7c1.3,0.4,2.4,0.8,3.5,1l8.4,1.9c1.8,0.3,3.6,0.8,5.3,1.4c1.8,0.7,3.3,1.6,4.7,2.8
		c1.4,1.1,2.5,2.5,3.4,4.2c0.9,1.7,1.3,3.6,1.3,5.9c0,2.8-0.6,5.2-1.9,7.1c-1.3,2-2.9,3.6-4.8,4.8c-2,1.2-4.2,2.1-6.7,2.6
		c-2.5,0.5-4.9,0.8-7.3,0.8c-6.1,0-11-1.4-14.8-4.3c-3.8-2.9-5.9-7.5-6.5-13.8h6.3c0.3,4.3,1.8,7.5,4.7,9.7
		c2.8,2.2,6.3,3.2,10.5,3.2c1.5,0,3.1-0.2,4.8-0.5c1.6-0.3,3.2-0.9,4.5-1.7c1.4-0.8,2.6-1.8,3.5-3c0.9-1.2,1.4-2.8,1.4-4.6
		c0-1.5-0.3-2.8-1-3.8c-0.6-1-1.5-1.9-2.5-2.6c-1.1-0.7-2.3-1.3-3.7-1.8c-1.4-0.5-2.8-0.9-4.2-1.2l-8.1-1.8c-2.1-0.5-4-1.2-5.7-1.9
		c-1.7-0.7-3.2-1.6-4.5-2.6c-1.3-1-2.3-2.3-3-3.8c-0.7-1.5-1.1-3.4-1.1-5.6c0-2.6,0.6-4.8,1.8-6.7c1.2-1.9,2.7-3.4,4.6-4.5
		c1.9-1.1,3.9-2,6.2-2.5c2.3-0.5,4.6-0.8,6.8-0.8c2.6,0,5,0.3,7.2,1c2.2,0.7,4.2,1.7,5.9,3.1c1.7,1.4,3,3.1,4,5.2s1.6,4.5,1.7,7.3
		h-6.3C558.9,862.4,558.5,860.7,557.7,859.3z"/>
	<path fill="#464646" d="M586.3,883.8c0.6,2.4,1.7,4.6,3.1,6.5c1.4,1.9,3.2,3.5,5.3,4.8c2.1,1.3,4.7,1.9,7.7,1.9
		c4.6,0,8.2-1.2,10.8-3.6c2.6-2.4,4.4-5.6,5.4-9.6h6.3c-1.3,5.9-3.8,10.4-7.4,13.6c-3.6,3.2-8.6,4.8-15.1,4.8
		c-4.1,0-7.6-0.7-10.6-2.1c-3-1.4-5.4-3.4-7.2-5.9c-1.9-2.5-3.2-5.4-4.1-8.7c-0.9-3.3-1.4-6.8-1.4-10.4c0-3.4,0.5-6.7,1.4-10
		c0.9-3.3,2.3-6.2,4.1-8.8c1.9-2.6,4.3-4.6,7.2-6.2c3-1.6,6.5-2.4,10.6-2.4c4.1,0,7.7,0.8,10.6,2.5c2.9,1.7,5.3,3.9,7.2,6.6
		c1.8,2.7,3.1,5.8,3.9,9.3c0.8,3.5,1.1,7,1,10.6h-39.7C585.3,879,585.7,881.3,586.3,883.8z M617.5,864.5c-0.8-2.2-1.8-4.2-3.2-5.9
		c-1.4-1.7-3.1-3.1-5.1-4.1c-2-1-4.3-1.5-6.8-1.5c-2.6,0-4.9,0.5-6.9,1.5c-2,1-3.7,2.4-5.1,4.1c-1.4,1.7-2.5,3.7-3.4,5.9
		c-0.8,2.2-1.4,4.5-1.6,6.8h33.4C618.7,869,618.3,866.7,617.5,864.5z"/>
	<path fill="#464646" d="M644.8,849.2v8.7h0.3c1.7-3.2,3.8-5.7,6.5-7.5s6.1-2.7,10.3-2.7c3.4,0,6.5,0.8,9.2,2.5
		c2.8,1.7,4.6,4.2,5.5,7.6c1.5-3.4,3.8-5.9,6.8-7.6c3-1.7,6.2-2.5,9.6-2.5c11.4,0,17.1,6,17.1,18.1v35H704v-34.7
		c0-4.3-0.9-7.5-2.7-9.8c-1.8-2.2-5-3.3-9.5-3.3c-2.7,0-5,0.5-6.8,1.5c-1.8,1-3.2,2.4-4.3,4.1c-1.1,1.7-1.8,3.7-2.2,6
		c-0.4,2.2-0.7,4.5-0.7,7v29.2h-6.3v-35c0-1.7-0.2-3.4-0.5-5c-0.4-1.6-1-2.9-1.8-4.1c-0.8-1.2-2-2.1-3.4-2.8c-1.4-0.7-3.1-1-5.1-1
		c-2.7,0-5,0.5-7,1.4c-2,1-3.6,2.3-4.8,4c-1.2,1.7-2.2,3.7-2.8,6c-0.6,2.3-0.9,4.8-0.9,7.6v28.8H639v-51.6H644.8z"/>
	<path fill="#464646" d="M734.1,829.4V859h0.2c0.7-1.9,1.6-3.5,2.8-4.9c1.2-1.4,2.7-2.6,4.2-3.5c1.6-1,3.3-1.7,5.2-2.2
		c1.9-0.5,3.7-0.7,5.6-0.7c3.9,0,7.4,0.7,10.2,2.2c2.9,1.5,5.3,3.5,7.2,6s3.4,5.4,4.3,8.7c0.9,3.3,1.4,6.8,1.4,10.5
		c0,3.7-0.5,7.1-1.4,10.4c-0.9,3.3-2.4,6.2-4.3,8.7s-4.3,4.5-7.2,5.9c-2.9,1.4-6.3,2.1-10.2,2.1c-4.2,0-7.9-1-11.2-2.9
		c-3.3-1.9-5.7-4.7-7.1-8.3h-0.2v9.8h-5.8v-71.4H734.1z M768.2,867.1c-0.6-2.6-1.6-5-3-7c-1.4-2.1-3.1-3.8-5.2-5.1
		c-2.1-1.3-4.7-1.9-7.7-1.9c-3.3,0-6.1,0.6-8.4,1.9c-2.3,1.3-4.2,3-5.6,5.1c-1.4,2.1-2.5,4.4-3.1,7c-0.6,2.6-1,5.3-1,8
		c0,2.7,0.3,5.3,1,7.9c0.6,2.6,1.7,5,3.1,7.1c1.4,2.1,3.3,3.8,5.6,5c2.3,1.3,5.1,2,8.4,2c3,0,5.6-0.7,7.7-2c2.1-1.3,3.9-3,5.2-5
		c1.4-2.1,2.4-4.4,3-7.1c0.6-2.6,1-5.3,1-7.9C769.1,872.4,768.8,869.7,768.2,867.1z"/>
	<path fill="#464646" d="M797.1,829.4v71.4h-6.3v-71.4H797.1z"/>
	<path fill="#464646" d="M819.4,883.8c0.6,2.4,1.7,4.6,3.1,6.5c1.4,1.9,3.2,3.5,5.3,4.8c2.1,1.3,4.7,1.9,7.7,1.9
		c4.6,0,8.2-1.2,10.8-3.6c2.6-2.4,4.4-5.6,5.4-9.6h6.3c-1.3,5.9-3.8,10.4-7.4,13.6c-3.6,3.2-8.6,4.8-15.1,4.8
		c-4.1,0-7.6-0.7-10.6-2.1c-3-1.4-5.4-3.4-7.2-5.9c-1.9-2.5-3.2-5.4-4.1-8.7c-0.9-3.3-1.4-6.8-1.4-10.4c0-3.4,0.5-6.7,1.4-10
		c0.9-3.3,2.3-6.2,4.1-8.8c1.9-2.6,4.3-4.6,7.2-6.2c3-1.6,6.5-2.4,10.6-2.4c4.1,0,7.7,0.8,10.6,2.5c2.9,1.7,5.3,3.9,7.2,6.6
		c1.8,2.7,3.1,5.8,3.9,9.3c0.8,3.5,1.1,7,1,10.6h-39.7C818.4,879,818.8,881.3,819.4,883.8z M850.6,864.5c-0.8-2.2-1.8-4.2-3.2-5.9
		c-1.4-1.7-3.1-3.1-5.1-4.1c-2-1-4.3-1.5-6.8-1.5c-2.6,0-4.9,0.5-6.9,1.5c-2,1-3.7,2.4-5.1,4.1c-1.4,1.7-2.5,3.7-3.4,5.9
		c-0.8,2.2-1.4,4.5-1.6,6.8h33.4C851.8,869,851.4,866.7,850.6,864.5z"/>
	<path fill="#464646" d="M415.4,941.2v9.8h0.2c1.5-3.6,3.9-6.4,7.1-8.3c3.3-2,7.1-3,11.2-3c3.9,0,7.4,0.7,10.2,2.2
		c2.9,1.5,5.3,3.4,7.2,5.9c1.9,2.5,3.4,5.4,4.3,8.7c0.9,3.3,1.4,6.8,1.4,10.5c0,3.7-0.5,7.1-1.4,10.5c-0.9,3.3-2.4,6.2-4.3,8.7
		c-1.9,2.5-4.4,4.5-7.2,5.9s-6.3,2.2-10.2,2.2c-1.9,0-3.7-0.2-5.6-0.7c-1.9-0.5-3.6-1.2-5.2-2.1c-1.6-0.9-3-2.1-4.2-3.5
		c-1.2-1.4-2.2-3-2.9-4.9h-0.2v28.8h-6.3v-70.6H415.4z M450,959.1c-0.6-2.6-1.6-5-3-7c-1.4-2.1-3.1-3.8-5.2-5c-2.1-1.3-4.7-2-7.7-2
		c-3.5,0-6.4,0.6-8.7,1.8c-2.3,1.2-4.2,2.8-5.6,4.8s-2.4,4.3-3,7c-0.6,2.7-0.9,5.5-0.9,8.4c0,2.7,0.3,5.3,1,8c0.6,2.6,1.7,5,3.1,7
		c1.4,2.1,3.3,3.8,5.6,5c2.3,1.3,5.1,2,8.4,2c3,0,5.6-0.7,7.7-2c2.1-1.3,3.9-3,5.2-5c1.4-2.1,2.4-4.4,3-7c0.6-2.6,0.9-5.3,0.9-8
		C450.9,964.4,450.6,961.7,450,959.1z"/>
	<path fill="#464646" d="M504.8,941.9c3,1.5,5.6,3.4,7.7,5.9c2.1,2.5,3.6,5.3,4.7,8.7c1.1,3.3,1.6,6.8,1.6,10.5
		c0,3.7-0.5,7.2-1.6,10.5c-1.1,3.3-2.6,6.2-4.7,8.7c-2.1,2.5-4.6,4.4-7.7,5.8c-3,1.4-6.5,2.2-10.5,2.2s-7.4-0.7-10.4-2.2
		c-3-1.4-5.6-3.4-7.6-5.8c-2.1-2.5-3.6-5.4-4.7-8.7c-1.1-3.3-1.6-6.8-1.6-10.5c0-3.7,0.5-7.2,1.6-10.5c1.1-3.3,2.6-6.2,4.7-8.7
		c2.1-2.5,4.6-4.4,7.6-5.9c3-1.5,6.5-2.2,10.4-2.2S501.8,940.5,504.8,941.9z M486.4,946.9c-2.3,1.3-4.2,2.9-5.7,5
		c-1.5,2.1-2.6,4.4-3.4,7.1c-0.8,2.6-1.1,5.3-1.1,8c0,2.7,0.4,5.4,1.1,8c0.8,2.6,1.9,5,3.4,7c1.5,2.1,3.4,3.7,5.7,5
		c2.3,1.3,4.9,1.9,7.9,1.9s5.6-0.6,7.9-1.9c2.3-1.3,4.2-2.9,5.7-5c1.5-2.1,2.6-4.4,3.4-7c0.8-2.6,1.2-5.3,1.2-8c0-2.7-0.4-5.4-1.2-8
		c-0.8-2.6-1.9-5-3.4-7.1c-1.5-2.1-3.4-3.7-5.7-5c-2.3-1.3-4.9-1.9-7.9-1.9S488.7,945.7,486.4,946.9z"/>
	<path fill="#464646" d="M569.6,992.8v-9.3h-0.2c-1.7,3.5-4.1,6.1-7.2,8c-3.2,1.8-6.7,2.8-10.5,2.8c-3.3,0-6-0.5-8.4-1.4
		c-2.3-0.9-4.2-2.2-5.6-3.8c-1.4-1.7-2.5-3.7-3.2-6.1c-0.7-2.4-1-5.1-1-8.2v-33.5h6.3v33.6c0.1,4.7,1.2,8.2,3.2,10.6
		c2,2.4,5.5,3.6,10.5,3.6c2.7,0,5.1-0.6,7-1.8c1.9-1.2,3.5-2.7,4.8-4.7c1.3-1.9,2.2-4.1,2.8-6.6c0.6-2.5,0.9-5.1,0.9-7.7v-27.1h6.3
		v51.6H569.6z"/>
	<path fill="#464646" d="M598.6,941.2v12.1h0.2c1.6-4.2,4.1-7.4,7.5-9.7c3.4-2.3,7.4-3.3,12-3.1v6.3c-2.9-0.1-5.5,0.2-7.8,1.2
		c-2.3,0.9-4.3,2.2-6,3.8c-1.7,1.7-3,3.7-4,6c-0.9,2.3-1.4,4.8-1.4,7.5v27.5h-6.3v-51.6H598.6z"/>
	<path fill="#464646" d="M699.1,992.8v-9.3h-0.2c-1.7,3.5-4.1,6.1-7.2,8c-3.2,1.8-6.7,2.8-10.5,2.8c-3.3,0-6-0.5-8.3-1.4
		c-2.3-0.9-4.2-2.2-5.6-3.8c-1.4-1.7-2.5-3.7-3.1-6.1c-0.7-2.4-1-5.1-1-8.2v-33.5h6.3v33.6c0.1,4.7,1.2,8.2,3.2,10.6
		c2,2.4,5.5,3.6,10.5,3.6c2.7,0,5.1-0.6,7-1.8c1.9-1.2,3.5-2.7,4.8-4.7c1.3-1.9,2.2-4.1,2.8-6.6c0.6-2.5,0.9-5.1,0.9-7.7v-27.1h6.3
		v51.6H699.1z"/>
	<path fill="#464646" d="M728.5,941.2v8.9h0.2c1.2-3.1,3.3-5.6,6.4-7.5c3.1-1.9,6.4-2.8,10.1-2.8c3.6,0,6.6,0.5,9.1,1.4
		c2.4,0.9,4.4,2.2,5.8,4c1.5,1.7,2.5,3.8,3.1,6.2c0.6,2.5,0.9,5.2,0.9,8.3v33.2h-6.3v-32.2c0-2.2-0.2-4.2-0.6-6.1
		c-0.4-1.9-1.1-3.6-2.1-5c-1-1.4-2.3-2.5-4-3.3c-1.7-0.8-3.8-1.2-6.4-1.2c-2.5,0-4.8,0.5-6.8,1.3c-2,0.9-3.6,2.1-5,3.7
		c-1.4,1.6-2.4,3.4-3.2,5.6c-0.8,2.2-1.2,4.5-1.2,7.1v30.1h-6.3v-51.6H728.5z"/>
	<path fill="#464646" d="M820.6,941.2v8.7h0.3c1.7-3.2,3.8-5.7,6.5-7.5c2.7-1.8,6.1-2.7,10.3-2.7c3.4,0,6.5,0.8,9.2,2.5
		c2.8,1.7,4.6,4.2,5.5,7.6c1.5-3.4,3.8-5.9,6.8-7.6c3-1.7,6.2-2.5,9.6-2.5c11.4,0,17.1,6,17.1,18.1v35h-6.3v-34.7
		c0-4.3-0.9-7.5-2.7-9.8c-1.8-2.2-5-3.3-9.5-3.3c-2.7,0-5,0.5-6.8,1.5c-1.8,1-3.2,2.4-4.3,4.2c-1.1,1.7-1.8,3.7-2.2,5.9
		c-0.4,2.2-0.7,4.6-0.7,7v29.2h-6.3v-35c0-1.7-0.2-3.4-0.5-5c-0.4-1.6-1-2.9-1.8-4.1c-0.8-1.2-2-2.1-3.4-2.8c-1.4-0.7-3.1-1-5.1-1
		c-2.7,0-5,0.5-7,1.5c-2,1-3.6,2.3-4.8,4c-1.2,1.7-2.2,3.7-2.8,6c-0.6,2.3-0.9,4.8-0.9,7.5v28.8h-6.3v-51.6H820.6z"/>
	<path fill="#464646" d="M908.3,975.8c0.6,2.4,1.6,4.6,3,6.5c1.4,1.9,3.2,3.5,5.3,4.8c2.1,1.3,4.7,1.9,7.7,1.9
		c4.6,0,8.2-1.2,10.8-3.6c2.6-2.4,4.4-5.6,5.4-9.6h6.3c-1.3,5.9-3.8,10.4-7.4,13.6c-3.6,3.2-8.6,4.8-15.1,4.8
		c-4.1,0-7.6-0.7-10.5-2.2c-3-1.4-5.4-3.4-7.2-5.9c-1.9-2.5-3.2-5.4-4.2-8.7c-0.9-3.3-1.3-6.8-1.3-10.5c0-3.4,0.4-6.7,1.3-10
		c0.9-3.3,2.3-6.2,4.2-8.8c1.9-2.6,4.3-4.6,7.2-6.2c3-1.6,6.5-2.3,10.5-2.3c4.1,0,7.7,0.8,10.6,2.5c2.9,1.7,5.3,3.8,7.2,6.5
		c1.8,2.7,3.1,5.8,4,9.3c0.8,3.5,1.1,7,1,10.7h-39.7C907.3,971,907.7,973.3,908.3,975.8z M939.5,956.5c-0.8-2.2-1.8-4.2-3.2-5.9
		c-1.4-1.7-3.1-3.1-5.1-4.1c-2-1-4.3-1.5-6.8-1.5c-2.6,0-4.9,0.5-6.9,1.5c-2,1-3.7,2.4-5.1,4.1c-1.4,1.7-2.5,3.7-3.4,5.9
		c-0.8,2.2-1.4,4.5-1.6,6.8h33.4C940.7,961,940.3,958.7,939.5,956.5z"/>
	<path fill="#464646" d="M967.4,921.4v10.1h-6.3v-10.1H967.4z M967.4,941.2v51.6h-6.3v-51.6H967.4z"/>
	<path fill="#464646" d="M991.4,921.4v71.4h-6.3v-71.4H991.4z"/>
	<path fill="#464646" d="M1015.4,921.4v71.4h-6.3v-71.4H1015.4z"/>
	<path fill="#464646" d="M1037.7,975.8c0.6,2.4,1.6,4.6,3,6.5c1.4,1.9,3.2,3.5,5.3,4.8c2.1,1.3,4.7,1.9,7.7,1.9
		c4.6,0,8.2-1.2,10.8-3.6c2.6-2.4,4.4-5.6,5.4-9.6h6.3c-1.3,5.9-3.8,10.4-7.4,13.6c-3.6,3.2-8.6,4.8-15.1,4.8
		c-4.1,0-7.6-0.7-10.5-2.2c-3-1.4-5.4-3.4-7.2-5.9c-1.9-2.5-3.2-5.4-4.2-8.7c-0.9-3.3-1.3-6.8-1.3-10.5c0-3.4,0.4-6.7,1.3-10
		c0.9-3.3,2.3-6.2,4.2-8.8c1.9-2.6,4.3-4.6,7.2-6.2c3-1.6,6.5-2.3,10.5-2.3c4.1,0,7.7,0.8,10.6,2.5c2.9,1.7,5.3,3.8,7.2,6.5
		c1.8,2.7,3.1,5.8,4,9.3c0.8,3.5,1.1,7,1,10.7h-39.7C1036.7,971,1037.1,973.3,1037.7,975.8z M1068.9,956.5c-0.8-2.2-1.8-4.2-3.2-5.9
		c-1.4-1.7-3.1-3.1-5.1-4.1c-2-1-4.3-1.5-6.8-1.5c-2.6,0-4.9,0.5-6.9,1.5c-2,1-3.7,2.4-5.1,4.1c-1.4,1.7-2.5,3.7-3.4,5.9
		c-0.8,2.2-1.4,4.5-1.6,6.8h33.4C1070.1,961,1069.7,958.7,1068.9,956.5z"/>
	<path fill="#464646" d="M1126.4,992.8v-9.3h-0.2c-1.7,3.5-4.1,6.1-7.2,8c-3.2,1.8-6.7,2.8-10.5,2.8c-3.3,0-6-0.5-8.3-1.4
		c-2.3-0.9-4.2-2.2-5.6-3.8c-1.4-1.7-2.5-3.7-3.1-6.1c-0.7-2.4-1-5.1-1-8.2v-33.5h6.3v33.6c0.1,4.7,1.2,8.2,3.2,10.6
		c2,2.4,5.5,3.6,10.5,3.6c2.7,0,5.1-0.6,7-1.8c1.9-1.2,3.5-2.7,4.8-4.7c1.3-1.9,2.2-4.1,2.8-6.6c0.6-2.5,0.9-5.1,0.9-7.7v-27.1h6.3
		v51.6H1126.4z"/>
	<path fill="#464646" d="M1155.4,941.2v12.1h0.2c1.6-4.2,4.1-7.4,7.5-9.7c3.4-2.3,7.4-3.3,12-3.1v6.3c-2.9-0.1-5.5,0.2-7.8,1.2
		c-2.3,0.9-4.4,2.2-6,3.8c-1.7,1.7-3,3.7-4,6c-0.9,2.3-1.4,4.8-1.4,7.5v27.5h-6.3v-51.6H1155.4z"/>
	<path fill="#464646" d="M1221.2,921.4l16.2,62.5h0.2l17.4-62.5h8.5l17.5,62.5h0.2l16.3-62.5h6.8l-19.7,71.4h-7.2l-18.1-63.9h-0.2
		l-18,63.9h-7.4l-19.8-71.4H1221.2z"/>
	<path fill="#464646" d="M1319,975.8c0.6,2.4,1.6,4.6,3,6.5c1.4,1.9,3.2,3.5,5.3,4.8c2.1,1.3,4.7,1.9,7.7,1.9
		c4.6,0,8.2-1.2,10.8-3.6c2.6-2.4,4.4-5.6,5.4-9.6h6.3c-1.3,5.9-3.8,10.4-7.4,13.6c-3.6,3.2-8.6,4.8-15.1,4.8
		c-4.1,0-7.6-0.7-10.5-2.2c-3-1.4-5.4-3.4-7.2-5.9c-1.9-2.5-3.2-5.4-4.2-8.7c-0.9-3.3-1.3-6.8-1.3-10.5c0-3.4,0.4-6.7,1.3-10
		c0.9-3.3,2.3-6.2,4.2-8.8c1.9-2.6,4.3-4.6,7.2-6.2c3-1.6,6.5-2.3,10.5-2.3c4.1,0,7.7,0.8,10.6,2.5c2.9,1.7,5.3,3.8,7.2,6.5
		c1.8,2.7,3.1,5.8,4,9.3c0.8,3.5,1.1,7,1,10.7H1318C1318,971,1318.4,973.3,1319,975.8z M1350.2,956.5c-0.8-2.2-1.8-4.2-3.2-5.9
		c-1.4-1.7-3.1-3.1-5.1-4.1c-2-1-4.3-1.5-6.8-1.5c-2.6,0-4.9,0.5-6.9,1.5c-2,1-3.7,2.4-5.1,4.1c-1.4,1.7-2.5,3.7-3.4,5.9
		c-0.8,2.2-1.4,4.5-1.6,6.8h33.4C1351.4,961,1351,958.7,1350.2,956.5z"/>
	<path fill="#464646" d="M1378,921.4V951h0.2c0.7-1.9,1.6-3.5,2.8-4.9c1.2-1.4,2.7-2.6,4.2-3.5c1.6-1,3.3-1.7,5.2-2.1
		c1.9-0.5,3.7-0.7,5.6-0.7c3.9,0,7.3,0.7,10.2,2.2c2.9,1.5,5.3,3.4,7.2,5.9c1.9,2.5,3.4,5.4,4.3,8.7c0.9,3.3,1.4,6.8,1.4,10.5
		c0,3.7-0.5,7.1-1.4,10.5c-0.9,3.3-2.4,6.2-4.3,8.7c-1.9,2.5-4.4,4.5-7.2,5.9c-2.9,1.4-6.3,2.2-10.2,2.2c-4.2,0-8-1-11.2-2.9
		c-3.3-1.9-5.7-4.7-7.2-8.3h-0.2v9.8h-5.8v-71.4H1378z M1412.1,959.1c-0.6-2.6-1.6-5-3-7c-1.4-2.1-3.1-3.8-5.2-5
		c-2.1-1.3-4.7-2-7.7-2c-3.3,0-6.2,0.6-8.5,2c-2.3,1.3-4.2,3-5.6,5c-1.4,2.1-2.5,4.4-3.1,7c-0.6,2.6-1,5.3-1,8c0,2.7,0.3,5.3,1,8
		c0.6,2.6,1.7,5,3.1,7c1.4,2.1,3.3,3.8,5.6,5s5.1,2,8.5,2c3,0,5.6-0.7,7.7-2c2.1-1.3,3.9-3,5.2-5c1.4-2.1,2.4-4.4,3-7
		c0.6-2.6,1-5.3,1-8C1413,964.4,1412.7,961.7,1412.1,959.1z"/>
</g>
<g>
	<path fill="#464646" d="M470.8,703.2v10.1h-47.1V742h41.4V752h-41.4v41.4h-12.1v-90.2H470.8z"/>
	<path fill="#464646" d="M528.6,789.1c-4.9,3.7-10.9,5.5-18.4,5.5c-5.2,0-9.8-0.9-13.5-2.6c-3.7-1.7-7.2-4-9.8-7.2
		s-4.6-6.6-5.7-10.9c-1.4-4.3-2-8.9-2.3-13.8c0-4.9,0.9-9.5,2.3-13.5c1.4-4,3.7-7.8,6.3-10.6c2.9-3.2,6-5.5,9.8-7.2
		c3.7-1.7,7.8-2.6,12.4-2.6c5.7,0,10.6,1.1,14.4,3.7c3.7,2.3,6.9,5.5,9.2,9.2c2.3,3.7,4,7.8,4.9,12.1c0.9,4.3,1.1,8.6,1.1,12.6
		h-48.8c0,2.9,0.3,5.5,1.1,8c0.9,2.6,2,4.9,3.7,6.9c1.7,2,3.7,3.4,6.3,4.6c2.6,1.1,5.7,1.7,9.2,1.7c4.6,0,8.3-1.1,11.2-3.2
		c2.9-2,4.9-5.2,5.7-9.5h10.6C536.6,779.9,533.4,785.4,528.6,789.1z M526,747.2c-0.9-2.3-2.3-4.3-4-5.7c-1.7-1.7-3.4-2.9-5.7-4
		c-2.3-0.9-4.6-1.4-7.5-1.4c-2.9,0-5.2,0.6-7.5,1.4c-2.3,0.9-4,2.3-5.7,4s-2.9,3.7-3.7,5.7c-0.9,2.3-1.4,4.6-1.7,7.2h37.6
		C527.4,751.7,526.8,749.5,526,747.2z"/>
	<path fill="#464646" d="M558.4,778.7c1.1,1.7,2.3,2.9,4,4c1.7,0.9,3.4,1.7,5.5,2c2,0.3,4.3,0.6,6.3,0.6c1.7,0,3.4,0,5.2-0.3
		c1.7-0.3,3.4-0.6,5.2-1.4c1.4-0.6,2.9-1.7,3.7-2.9c1.1-1.4,1.4-2.9,1.4-4.9c0-2.9-1.1-4.9-3.2-6.3c-2-1.4-4.6-2.6-7.8-3.4
		c-3.2-0.9-6.6-1.7-10.3-2.3c-3.7-0.6-7.2-1.7-10.3-3.2s-5.7-3.2-7.8-5.5c-2-2.3-3.2-5.7-3.2-9.8c0-3.2,0.9-6,2.3-8.3
		c1.4-2.3,3.4-4.3,5.7-5.7c2.3-1.4,4.9-2.6,7.8-3.2s5.7-1.1,8.6-1.1c3.7,0,7.2,0.3,10.3,0.9c3.2,0.6,5.7,1.7,8.3,3.2
		c2.3,1.4,4.3,3.7,5.7,6.3s2.3,6,2.6,10.1h-10.9c-0.3-2-0.6-3.7-1.7-5.2c-0.9-1.4-2-2.6-3.4-3.4c-1.4-0.9-2.9-1.4-4.6-1.7
		s-3.4-0.6-5.2-0.6s-3.2,0-4.9,0.3c-1.7,0.3-3.2,0.6-4.6,1.4c-1.4,0.6-2.6,1.4-3.2,2.6c-0.9,1.1-1.1,2.3-1.1,4s0.6,3.4,2,4.6
		c1.4,1.1,2.9,2.3,4.9,3.2c2,0.9,4.3,1.4,6.9,2s5.2,1.1,7.5,1.7c2.6,0.6,5.5,1.4,7.8,2c2.6,0.9,4.9,2,6.9,3.4c2,1.4,3.4,3.2,4.9,5.2
		c1.1,2,1.7,4.6,1.7,7.8c0,4-0.9,7.2-2.6,9.8c-1.7,2.6-3.7,4.6-6.3,6.3s-5.7,2.6-8.9,3.4c-3.4,0.6-6.6,0.9-10.1,0.9
		c-3.7,0-7.2-0.3-10.3-1.1s-6.3-2-8.6-3.7c-2.6-1.7-4.6-4-6-6.9s-2.3-6.3-2.6-10.3h10.6C556.7,775,557.3,777,558.4,778.7z"/>
	<path fill="#464646" d="M641.2,727.9v9.5h-12.9v40.5c0,1.1,0,2.3,0.3,3.2c0.3,0.9,0.6,1.4,1.1,1.7c0.6,0.3,1.4,0.6,2.6,0.9
		c1.1,0,2.3,0.3,4,0.3h4.9v9.5h-8.3c-2.9,0-5.2-0.3-7.2-0.6c-2-0.3-3.4-1.1-4.9-2c-1.1-1.1-2-2.3-2.6-4.3c-0.6-1.7-0.9-4.3-0.9-7.2
		v-41.9h-11.2v-9.5h11.2v-19.5h10.6v19.5H641.2z"/>
	<path fill="#464646" d="M653.5,716.1v-12.9h10.6v13.2h-10.6V716.1z M664.4,727.9v65.2h-10.6v-65.2H664.4z"/>
	<path fill="#464646" d="M737.4,715.8c-4.6-3.2-10.1-4.9-16.4-4.9c-5.5,0-10.1,1.1-13.8,3.2c-3.7,2-6.9,4.6-9.5,8
		c-2.6,3.4-4.3,7.2-5.5,11.8c-1.1,4.3-1.7,8.9-1.7,13.5c0,5.2,0.6,10.1,1.7,14.6c1.1,4.6,2.9,8.6,5.5,12.1s5.7,6,9.5,8
		c3.7,2,8.6,3.2,13.8,3.2c4,0,7.5-0.6,10.6-2c3.2-1.4,5.7-3.2,8-5.5c2.3-2.3,4-5.2,5.2-8.3s2-6.6,2.3-10.3h12.1
		c-1.1,11.5-5.2,20.1-11.8,26.4c-6.6,6.3-15.8,9.5-27.3,9.5c-6.9,0-13.2-1.1-18.4-3.7c-5.2-2.3-9.5-5.7-12.9-10.1
		c-3.4-4.3-6-9.2-7.8-14.9c-1.7-5.7-2.6-11.8-2.6-18.4c0-6.6,0.9-12.6,2.9-18.4c1.7-5.7,4.6-10.9,8-15.2c3.4-4.3,8-7.8,13.5-10.1
		c5.5-2.6,11.5-3.7,18.4-3.7c4.6,0,9.2,0.6,13.5,2c4.3,1.1,8,3.2,11.2,5.5c3.2,2.6,6,5.5,8.3,9.2c2.3,3.7,3.7,7.8,4.3,12.6h-12.1
		C744.8,723.9,742,719,737.4,715.8z"/>
	<path fill="#464646" d="M770.7,747.2c1.4-4.3,3.4-7.8,6-10.9c2.6-3.2,6-5.5,10.1-7.2s8.6-2.6,13.5-2.6c5.2,0,9.8,0.9,13.8,2.6
		c4,1.7,7.2,4.3,10.1,7.2c2.6,3.2,4.6,6.6,6,10.9c1.4,4.3,2,8.6,2,13.5s-0.6,9.2-2,13.5c-1.4,4-3.4,7.8-6,10.9
		c-2.6,3.2-6,5.5-10.1,7.2c-4,1.7-8.6,2.6-13.8,2.6s-9.8-0.9-13.5-2.6c-4-1.7-7.2-4-10.1-7.2c-2.6-3.2-4.6-6.6-6-10.9
		c-1.4-4-2-8.6-2-13.5C768.7,756.1,769.3,751.5,770.7,747.2z M781.6,771.3c1.1,3.2,2.6,5.7,4.3,7.8c1.7,2,4,3.7,6.6,4.6
		c2.6,1.1,5.2,1.7,7.8,1.7c2.9,0,5.5-0.6,7.8-1.7c2.6-1.1,4.6-2.6,6.6-4.6c1.7-2,3.2-4.6,4.3-7.8s1.4-6.6,1.4-10.6
		c0-4-0.6-7.5-1.4-10.6c-1.1-3.2-2.6-5.7-4.3-7.8c-1.7-2-4-3.7-6.6-4.9c-2.6-1.1-5.2-1.7-7.8-1.7c-2.9,0-5.5,0.6-7.8,1.7
		c-2.6,1.1-4.6,2.6-6.6,4.9c-1.7,2-3.4,4.6-4.3,7.8c-1.1,3.2-1.4,6.6-1.4,10.6S780.5,768.1,781.6,771.3z"/>
	<path fill="#464646" d="M892.2,793.4v-8.9l0,0c-1.7,3.7-4.6,6.3-8.3,7.8c-3.7,1.7-8,2.3-12.6,2.3c-5.2,0-9.5-0.9-13.2-2.9
		c-3.7-1.7-6.9-4.3-9.5-7.5s-4.3-6.6-5.7-10.9c-1.1-4-2-8.6-2-13.2s0.6-8.9,1.7-13.2c1.1-4,3.2-7.8,5.5-10.9s5.5-5.5,9.5-7.5
		c3.7-1.7,8-2.6,12.9-2.6c1.7,0,3.4,0.3,5.5,0.6c2,0.3,3.7,0.9,5.7,1.7c2,0.9,3.7,1.7,5.5,3.2s3.2,2.9,4.3,4.9h0.3v-33h10.6v90.2
		H892.2z M853.7,770.1c0.9,2.9,2,5.5,3.7,7.8c1.7,2.3,3.7,4,6.3,5.5c2.6,1.4,5.5,2,8.9,2c3.7,0,6.6-0.6,9.2-2s4.6-3.2,6.3-5.7
		c1.7-2.3,2.9-4.9,3.4-7.8c0.6-2.9,1.1-6,1.1-8.9c0-3.2-0.3-6.3-1.1-9.2c-0.9-2.9-2-5.7-3.7-7.8c-1.7-2.3-3.7-4-6.3-5.5
		c-2.6-1.4-5.7-2-9.5-2s-6.6,0.6-9.2,2c-2.6,1.4-4.6,3.4-6,5.7c-1.4,2.3-2.6,5.2-3.2,8c-0.6,3.2-1.1,6-1.1,9.5
		C852.5,764.4,852.8,767.3,853.7,770.1z"/>
	<path fill="#464646" d="M965.7,789.1c-4.9,3.7-10.9,5.5-18.4,5.5c-5.2,0-9.8-0.9-13.5-2.6c-3.7-1.7-7.2-4-9.8-7.2
		s-4.6-6.6-5.7-10.9c-1.4-4.3-2-8.9-2.3-13.8c0-4.9,0.9-9.5,2.3-13.5c1.4-4,3.7-7.8,6.3-10.6c2.9-3.2,6-5.5,9.8-7.2
		s7.8-2.6,12.4-2.6c5.7,0,10.6,1.1,14.4,3.7c3.7,2.3,6.9,5.5,9.2,9.2c2.3,3.7,4,7.8,4.9,12.1c0.9,4.3,1.1,8.6,1.1,12.6h-48.8
		c0,2.9,0.3,5.5,1.1,8s2,4.9,3.7,6.9c1.7,2,3.7,3.4,6.3,4.6c2.6,1.1,5.7,1.7,9.2,1.7c4.6,0,8.3-1.1,11.2-3.2c2.9-2,4.9-5.2,5.7-9.5
		h10.6C973.8,779.9,970.6,785.4,965.7,789.1z M963.1,747.2c-0.9-2.3-2.3-4.3-4-5.7c-1.7-1.7-3.4-2.9-5.7-4c-2.3-0.9-4.6-1.4-7.5-1.4
		s-5.2,0.6-7.5,1.4c-2.3,0.9-4,2.3-5.7,4s-2.9,3.7-3.7,5.7c-0.9,2.3-1.4,4.6-1.7,7.2h37.6C964.8,751.7,964.3,749.5,963.1,747.2z"/>
	<path fill="#464646" d="M1021.4,722.7c1.1-3.7,2.9-7.2,5.5-10.1c2.6-2.9,5.5-5.2,9.2-6.6c3.7-1.7,8-2.3,12.6-2.3
		c3.7,0,7.5,0.6,10.9,1.7s6.3,2.9,8.9,4.9s4.6,4.9,6,8c1.4,3.2,2.3,6.9,2.3,11.2c0,4-0.6,7.5-1.7,10.3c-1.1,3.2-2.9,5.7-4.9,8
		c-2,2.3-4.3,4.6-6.9,6.6c-2.6,2-5.2,3.7-8,5.5s-5.5,3.4-8.3,4.9c-2.9,1.7-5.5,3.4-7.8,5.2c-2.3,1.7-4.3,3.7-6,6
		c-1.7,2-2.6,4.6-3.2,7.5h46v9.5h-58.6c0.3-5.2,1.4-9.8,2.9-13.5c1.4-3.7,3.4-6.9,5.7-9.8s4.9-5.2,7.8-7.2c2.9-2,5.7-4,8.9-6
		c3.7-2.3,7.2-4.6,10.1-6.6c2.9-2,5.2-4,7.2-6c2-2,3.4-4.3,4.3-6.6c0.9-2.3,1.4-5.2,1.4-8.3c0-2.3-0.6-4.6-1.4-6.6
		c-0.9-2-2.3-3.7-3.7-5.2c-1.4-1.4-3.4-2.6-5.5-3.2c-2-0.6-4.3-1.1-6.6-1.1c-3.2,0-5.7,0.6-8,2s-4,2.9-5.5,5.2
		c-1.4,2-2.6,4.6-3.2,7.2s-0.9,5.5-0.9,8h-10.6C1019.7,730.8,1020.3,726.8,1021.4,722.7z"/>
	<path fill="#464646" d="M1090.1,739.1c0.3-3.4,0.6-6.9,1.1-10.3s1.7-6.6,2.9-9.5c1.1-3.2,2.9-5.7,5.2-8c2.3-2.3,4.9-4,8.3-5.5
		s7.2-2,12.1-2c4.9,0,8.6,0.6,12.1,2s6,3.2,8.3,5.5c2.3,2.3,4,4.9,5.2,8c1.1,3.2,2.3,6.3,2.9,9.5c0.6,3.4,1.1,6.9,1.1,10.3
		c0.3,3.4,0.3,6.9,0.3,10.3c0,3.2,0,6.6-0.3,10.3c-0.3,3.4-0.6,6.9-1.1,10.3s-1.7,6.6-2.9,9.5c-1.1,2.9-2.9,5.7-5.2,7.8
		c-2.3,2.3-4.9,4-8.3,5.5c-3.2,1.4-7.2,2-12.1,2c-4.6,0-8.6-0.6-12.1-2c-3.4-1.4-6-3.2-8.3-5.5s-4-4.9-5.2-7.8
		c-1.1-2.9-2.3-6-2.9-9.5c-0.6-3.4-1.1-6.9-1.1-10.3c-0.3-3.4-0.3-6.9-0.3-10.3S1090.1,742.6,1090.1,739.1z M1101.6,760.7
		c0.3,4.3,0.9,8,2,11.8c1.1,3.7,2.9,6.9,5.5,9.2c2.6,2.6,6,3.7,10.6,3.7s8-1.1,10.6-3.7c2.6-2.6,4.3-5.7,5.5-9.2
		c1.1-3.7,1.7-7.5,2-11.8s0.3-8,0.3-11.2c0-2.3,0-4.6,0-7.2c0-2.6-0.3-5.2-0.6-8s-0.9-5.2-1.7-7.8c-0.6-2.6-1.7-4.6-3.2-6.6
		s-3.2-3.4-5.2-4.6c-2-1.1-4.6-1.7-7.8-1.7s-5.5,0.6-7.8,1.7c-2,1.1-3.7,2.6-5.2,4.6c-1.4,2-2.6,4-3.2,6.6c-0.6,2.6-1.1,5.2-1.7,7.8
		c-0.6,2.6-0.6,5.2-0.6,8s0,5.2,0,7.2C1101.3,752.6,1101.3,756.3,1101.6,760.7z"/>
	<path fill="#464646" d="M1189.2,793.4v-64.3h-23.3v-8.6c3.2,0,6-0.3,8.9-0.6c2.9-0.6,5.5-1.4,7.8-2.6c2.3-1.1,4.3-2.9,5.7-5.2
		c1.7-2.3,2.6-4.9,3.2-8.3h8.3v89.6H1189.2z"/>
	<path fill="#464646" d="M1290,763v9.5h-12.1v21h-10.1v-21h-39.3v-10.3l40.8-58.3h8.6V763H1290L1290,763z M1267.9,719L1267.9,719
		l-30.2,43.9h30.2V719z"/>
</g>
</svg>
