<?xml version="1.0" encoding="UTF-8" standalone="no"?>
<!-- Generator: Adobe Illustrator 17.1.0, SVG Export Plug-In . SVG Version: 6.00 Build 0)  -->

<svg
   xmlns:dc="http://purl.org/dc/elements/1.1/"
   xmlns:cc="http://creativecommons.org/ns#"
   xmlns:rdf="http://www.w3.org/1999/02/22-rdf-syntax-ns#"
   xmlns:svg="http://www.w3.org/2000/svg"
   xmlns="http://www.w3.org/2000/svg"
   xmlns:sodipodi="http://sodipodi.sourceforge.net/DTD/sodipodi-0.dtd"
   xmlns:inkscape="http://www.inkscape.org/namespaces/inkscape"
   version="1.1"
   id="Layer_1"
   x="0px"
   y="0px"
   viewBox="0 0 271.285 55.287093"
   enable-background="new 0 0 452.6 65.5"
   xml:space="preserve"
   inkscape:version="0.48.4 r9939"
   width="100%"
   height="100%"
   sodipodi:docname="boew-logo.svg"
   inkscape:export-filename="/home/thomas/git/codefest/assets/boew-logo.png"
   inkscape:export-xdpi="90"
   inkscape:export-ydpi="90"><metadata
     id="metadata39"><rdf:RDF><cc:Work
         rdf:about=""><dc:format>image/svg+xml</dc:format><dc:type
           rdf:resource="http://purl.org/dc/dcmitype/StillImage" /><dc:title></dc:title></cc:Work></rdf:RDF></metadata><defs
     id="defs37" /><sodipodi:namedview
     pagecolor="#ffffff"
     bordercolor="#666666"
     borderopacity="1"
     objecttolerance="10"
     gridtolerance="10"
     guidetolerance="10"
     inkscape:pageopacity="0"
     inkscape:pageshadow="2"
     inkscape:window-width="1301"
     inkscape:window-height="640"
     id="namedview35"
     showgrid="false"
     inkscape:zoom="2.5806452"
     inkscape:cx="138.32835"
     inkscape:cy="69.739716"
     inkscape:window-x="65"
     inkscape:window-y="24"
     inkscape:window-maximized="1"
     inkscape:current-layer="Layer_1"
     fit-margin-top="0"
     fit-margin-left="0"
     fit-margin-right="0"
     fit-margin-bottom="0" /><g
     transform="matrix(1,0,0,0.99999897,-9.7,-462.63294)"
     id="g3"
     style="fill:#464646;fill-opacity:1"><path
       d="m 105.9,462.7 c -6.7,-0.1 -11.5,0 -14.2,0.4 -5.3,0.7 -11,6.9 -13.5,11.3 -3.5,5.2 -7.3,16.4 -13,16.4 -5.7,0 -9.1,-12.7 -14.2,-12.6 -5.1,0.1 -7.7,11.7 -15.5,11.7 -7.8,0 -13.9,-19.8 -15.5,-27.1 H 9.7 c 1.8,11.4 6.4,20.1 10.6,26.2 2.1,3 4.4,5.8 7.1,8.1 2.7,2.3 4.6,3.9 9.8,4.1 5.2,0.2 9.9,-8.4 13.1,-8.5 3,-0.1 3.8,3 2.7,5 -1.1,2 -4.1,5.4 -5.2,8.5 -1.5,4.4 -2,8.4 -1.9,11.2 l 10.6,0 c 0.1,-5.5 3.5,-15.3 9,-15.6 3.2,0 9,5.6 10.7,7.9 1.7,2.3 3.1,4.5 6.2,6.2 3.1,1.8 7.4,2 11.6,0.5 5.5,-2 8.3,-7.2 9.9,-12.1 1.7,-4.9 2.4,-10.4 3,-15.6 0.6,-5.2 0.7,-8.3 1.3,-11.5 0.1,-0.7 0.4,-3.1 2.6,-3.6 2.3,-0.5 17.9,-0.1 17.9,-0.1 l 0,-10.4 c -0.1,-0.4 -16.1,-0.3 -22.8,-0.4 l 0,0 z m -8.1,10.6 c -0.9,9.3 -1.1,18.6 -4,27.3 -0.7,2 -3.3,7.6 -6.2,5.9 -0.4,-0.2 -1.5,-1.4 -3.1,-3.5 -1.7,-2.3 -4.3,-5.7 -8.2,-8.3 2.9,-2.9 5.1,-6.4 7,-9.5 2.2,-3.6 3.7,-6.6 3.7,-6.6 0,0 0,0 0,0 2.2,-4.2 6.9,-6.2 10.8,-5.3 z"
       id="path5"
       style="fill:#464646;fill-opacity:1"
       inkscape:connector-curvature="0" /></g><rect
     x="133.49014"
     y="0.27309912"
     width="3"
     height="54"
     id="rect33"
     style="fill:#464646;fill-opacity:1" /><flowRoot
     xml:space="preserve"
     id="flowRoot2997"
     style="font-size:12px;font-style:normal;font-weight:normal;line-height:125%;letter-spacing:0px;word-spacing:0px;fill:#464646;fill-opacity:1;stroke:none;font-family:Sans"
     transform="matrix(1.4949417,0,0,1.4193237,13.407557,142.59167)"><flowRegion
       id="flowRegion2999"><rect
         id="rect3001"
         width="145.3125"
         height="82.537498"
         x="92.612495"
         y="-103.45"
         style="fill:#464646;fill-opacity:1" /></flowRegion><flowPara
       id="flowPara3003"
       style="font-weight:normal;fill:#464646;fill-opacity:1;font-family:Arial;-inkscape-font-specification:Arial">Boîte à outils</flowPara><flowPara
       id="flowPara3005"
       style="font-weight:normal;fill:#464646;fill-opacity:1;font-family:Arial;-inkscape-font-specification:Arial">de l'expérience</flowPara><flowPara
       id="flowPara3007"
       style="font-weight:normal;fill:#464646;fill-opacity:1;font-family:Arial;-inkscape-font-specification:Arial">Web</flowPara></flowRoot></svg>