<?xml version="1.0" encoding="utf-8"?>
<!-- Generator: Adobe Illustrator 17.1.0, SVG Export Plug-In . SVG Version: 6.00 Build 0)  -->
<!DOCTYPE svg PUBLIC "-//W3C//DTD SVG 1.1//EN" "http://www.w3.org/Graphics/SVG/1.1/DTD/svg11.dtd">
<svg version="1.1" id="Layer_1" xmlns="http://www.w3.org/2000/svg" xmlns:xlink="http://www.w3.org/1999/xlink" x="0px" y="0px"
	 viewBox="0 0 452.6 65.5" enable-background="new 0 0 452.6 65.5" xml:space="preserve">
<g transform="matrix(1,0,0,0.99999897,-9.6901386,-462.70603)">
	<path fill="#FFFFFF" d="M105.9,462.7c-6.7-0.1-11.5,0-14.2,0.4c-5.3,0.7-11,6.9-13.5,11.3c-3.5,5.2-7.3,16.4-13,16.4
		s-9.1-12.7-14.2-12.6c-5.1,0.1-7.7,11.7-15.5,11.7c-7.8,0-13.9-19.8-15.5-27.1H9.7c1.8,11.4,6.4,20.1,10.6,26.2
		c2.1,3,4.4,5.8,7.1,8.1s4.6,3.9,9.8,4.1s9.9-8.4,13.1-8.5c3-0.1,3.8,3,2.7,5c-1.1,2-4.1,5.4-5.2,8.5c-1.5,4.4-2,8.4-1.9,11.2
		l10.6,0c0.1-5.5,3.5-15.3,9-15.6c3.2,0,9,5.6,10.7,7.9s3.1,4.5,6.2,6.2c3.1,1.8,7.4,2,11.6,0.5c5.5-2,8.3-7.2,9.9-12.1
		c1.7-4.9,2.4-10.4,3-15.6c0.6-5.2,0.7-8.3,1.3-11.5c0.1-0.7,0.4-3.1,2.6-3.6c2.3-0.5,17.9-0.1,17.9-0.1l0-10.4
		C128.6,462.7,112.6,462.8,105.9,462.7L105.9,462.7z M97.8,473.3c-0.9,9.3-1.1,18.6-4,27.3c-0.7,2-3.3,7.6-6.2,5.9
		c-0.4-0.2-1.5-1.4-3.1-3.5c-1.7-2.3-4.3-5.7-8.2-8.3c2.9-2.9,5.1-6.4,7-9.5c2.2-3.6,3.7-6.6,3.7-6.6c0,0,0,0,0,0
		C89.2,474.4,93.9,472.4,97.8,473.3z"/>
</g>
<g>
	<path fill="#FFFFFF" d="M173.6,17.4c-1.6-1.1-3.5-1.7-5.7-1.7c-1.9,0-3.5,0.4-4.8,1.1c-1.3,0.7-2.4,1.6-3.3,2.8
		c-0.9,1.2-1.5,2.5-1.9,4.1c-0.4,1.5-0.6,3.1-0.6,4.7c0,1.8,0.2,3.5,0.6,5.1c0.4,1.6,1,3,1.9,4.2c0.9,1.2,2,2.1,3.3,2.8
		c1.3,0.7,3,1.1,4.8,1.1c1.4,0,2.6-0.2,3.7-0.7c1.1-0.5,2-1.1,2.8-1.9c0.8-0.8,1.4-1.8,1.8-2.9c0.4-1.1,0.7-2.3,0.8-3.6h4.2
		c-0.4,4-1.8,7-4.1,9.2c-2.3,2.2-5.5,3.3-9.5,3.3c-2.4,0-4.6-0.4-6.4-1.3c-1.8-0.8-3.3-2-4.5-3.5c-1.2-1.5-2.1-3.2-2.7-5.2
		c-0.6-2-0.9-4.1-0.9-6.4s0.3-4.4,1-6.4c0.6-2,1.6-3.8,2.8-5.3c1.2-1.5,2.8-2.7,4.7-3.5c1.9-0.9,4-1.3,6.4-1.3
		c1.6,0,3.2,0.2,4.7,0.7c1.5,0.4,2.8,1.1,3.9,1.9c1.1,0.9,2.1,1.9,2.9,3.2c0.8,1.3,1.3,2.7,1.5,4.4h-4.2
		C176.3,20.2,175.2,18.5,173.6,17.4z"/>
	<path fill="#FFFFFF" d="M185.3,28.3c0.5-1.5,1.2-2.7,2.1-3.8c0.9-1.1,2.1-1.9,3.5-2.5c1.4-0.6,3-0.9,4.7-0.9c1.8,0,3.4,0.3,4.8,0.9
		c1.4,0.6,2.5,1.5,3.5,2.5s1.6,2.3,2.1,3.8c0.5,1.5,0.7,3,0.7,4.7c0,1.7-0.2,3.2-0.7,4.7c-0.5,1.4-1.2,2.7-2.1,3.8
		c-0.9,1.1-2.1,1.9-3.5,2.5c-1.4,0.6-3,0.9-4.8,0.9c-1.8,0-3.4-0.3-4.7-0.9c-1.4-0.6-2.5-1.4-3.5-2.5c-0.9-1.1-1.6-2.3-2.1-3.8
		c-0.5-1.4-0.7-3-0.7-4.7C184.6,31.4,184.8,29.8,185.3,28.3z M189.1,36.7c0.4,1.1,0.9,2,1.5,2.7c0.6,0.7,1.4,1.3,2.3,1.6
		c0.9,0.4,1.8,0.6,2.7,0.6s1.9-0.2,2.7-0.6c0.9-0.4,1.6-0.9,2.3-1.6c0.6-0.7,1.1-1.6,1.5-2.7c0.4-1.1,0.5-2.3,0.5-3.7
		c0-1.4-0.2-2.6-0.5-3.7c-0.4-1.1-0.9-2-1.5-2.7c-0.6-0.7-1.4-1.3-2.3-1.7c-0.9-0.4-1.8-0.6-2.7-0.6s-1.9,0.2-2.7,0.6
		c-0.9,0.4-1.6,0.9-2.3,1.7c-0.6,0.7-1.2,1.6-1.5,2.7c-0.4,1.1-0.5,2.3-0.5,3.7C188.5,34.4,188.7,35.6,189.1,36.7z"/>
	<path fill="#FFFFFF" d="M227.6,44.4v-3.1h-0.1c-0.6,1.3-1.6,2.2-2.9,2.7c-1.3,0.6-2.8,0.8-4.4,0.8c-1.8,0-3.3-0.3-4.6-1
		c-1.3-0.6-2.4-1.5-3.3-2.6c-0.9-1.1-1.5-2.3-2-3.8c-0.4-1.4-0.7-3-0.7-4.6c0-1.6,0.2-3.1,0.6-4.6c0.4-1.4,1.1-2.7,1.9-3.8
		c0.9-1.1,1.9-1.9,3.3-2.6c1.3-0.6,2.8-0.9,4.6-0.9c0.6,0,1.2,0.1,1.9,0.2c0.7,0.1,1.3,0.3,2,0.6c0.7,0.3,1.3,0.6,1.9,1.1
		c0.6,0.5,1.1,1,1.5,1.7h0.1V13h3.7v31.4H227.6z M214.2,36.3c0.3,1,0.7,1.9,1.3,2.7c0.6,0.8,1.3,1.4,2.2,1.9
		c0.9,0.5,1.9,0.7,3.1,0.7c1.3,0,2.3-0.2,3.2-0.7c0.9-0.5,1.6-1.1,2.2-2c0.6-0.8,1-1.7,1.2-2.7c0.2-1,0.4-2.1,0.4-3.1
		c0-1.1-0.1-2.2-0.4-3.2c-0.3-1-0.7-2-1.3-2.7c-0.6-0.8-1.3-1.4-2.2-1.9c-0.9-0.5-2-0.7-3.3-0.7c-1.3,0-2.3,0.2-3.2,0.7
		c-0.9,0.5-1.6,1.2-2.1,2c-0.5,0.8-0.9,1.8-1.1,2.8c-0.2,1.1-0.4,2.1-0.4,3.3C213.8,34.3,213.9,35.3,214.2,36.3z"/>
	<path fill="#FFFFFF" d="M253.2,42.9c-1.7,1.3-3.8,1.9-6.4,1.9c-1.8,0-3.4-0.3-4.7-0.9c-1.3-0.6-2.5-1.4-3.4-2.5
		c-0.9-1.1-1.6-2.3-2-3.8c-0.5-1.5-0.7-3.1-0.8-4.8c0-1.7,0.3-3.3,0.8-4.7c0.5-1.4,1.3-2.7,2.2-3.7c1-1.1,2.1-1.9,3.4-2.5
		c1.3-0.6,2.7-0.9,4.3-0.9c2,0,3.7,0.4,5,1.3c1.3,0.8,2.4,1.9,3.2,3.2c0.8,1.3,1.4,2.7,1.7,4.2c0.3,1.5,0.4,3,0.4,4.4h-17
		c0,1,0.1,1.9,0.4,2.8c0.3,0.9,0.7,1.7,1.3,2.4c0.6,0.7,1.3,1.2,2.2,1.6c0.9,0.4,2,0.6,3.2,0.6c1.6,0,2.9-0.4,3.9-1.1
		c1-0.7,1.7-1.8,2-3.3h3.7C256,39.7,254.9,41.6,253.2,42.9z M252.3,28.3c-0.3-0.8-0.8-1.5-1.4-2c-0.6-0.6-1.2-1-2-1.4
		c-0.8-0.3-1.6-0.5-2.6-0.5c-1,0-1.8,0.2-2.6,0.5c-0.8,0.3-1.4,0.8-2,1.4c-0.6,0.6-1,1.3-1.3,2c-0.3,0.8-0.5,1.6-0.6,2.5h13.1
		C252.8,29.9,252.6,29.1,252.3,28.3z"/>
	<path fill="#FFFFFF" d="M281.9,13v3.5h-16.4v10h14.4V30h-14.4v14.4h-4.2V13H281.9z"/>
	<path fill="#FFFFFF" d="M302,42.9c-1.7,1.3-3.8,1.9-6.4,1.9c-1.8,0-3.4-0.3-4.7-0.9c-1.3-0.6-2.5-1.4-3.4-2.5
		c-0.9-1.1-1.6-2.3-2-3.8c-0.5-1.5-0.7-3.1-0.8-4.8c0-1.7,0.3-3.3,0.8-4.7s1.3-2.7,2.2-3.7c1-1.1,2.1-1.9,3.4-2.5
		c1.3-0.6,2.7-0.9,4.3-0.9c2,0,3.7,0.4,5,1.3c1.3,0.8,2.4,1.9,3.2,3.2c0.8,1.3,1.4,2.7,1.7,4.2c0.3,1.5,0.4,3,0.4,4.4h-17
		c0,1,0.1,1.9,0.4,2.8c0.3,0.9,0.7,1.7,1.3,2.4c0.6,0.7,1.3,1.2,2.2,1.6c0.9,0.4,2,0.6,3.2,0.6c1.6,0,2.9-0.4,3.9-1.1
		c1-0.7,1.7-1.8,2-3.3h3.7C304.8,39.7,303.7,41.6,302,42.9z M301.1,28.3c-0.3-0.8-0.8-1.5-1.4-2c-0.6-0.6-1.2-1-2-1.4
		c-0.8-0.3-1.6-0.5-2.6-0.5c-1,0-1.8,0.2-2.6,0.5c-0.8,0.3-1.4,0.8-2,1.4c-0.6,0.6-1,1.3-1.3,2c-0.3,0.8-0.5,1.6-0.6,2.5h13.1
		C301.7,29.9,301.5,29.1,301.1,28.3z"/>
	<path fill="#FFFFFF" d="M312.4,39.3c0.4,0.6,0.8,1,1.4,1.4c0.6,0.3,1.2,0.6,1.9,0.7c0.7,0.1,1.5,0.2,2.2,0.2c0.6,0,1.2,0,1.8-0.1
		c0.6-0.1,1.2-0.2,1.8-0.5c0.5-0.2,1-0.6,1.3-1c0.4-0.5,0.5-1,0.5-1.7c0-1-0.4-1.7-1.1-2.2c-0.7-0.5-1.6-0.9-2.7-1.2
		c-1.1-0.3-2.3-0.6-3.6-0.8c-1.3-0.2-2.5-0.6-3.6-1.1c-1.1-0.5-2-1.1-2.7-1.9c-0.7-0.8-1.1-2-1.1-3.4c0-1.1,0.3-2.1,0.8-2.9
		c0.5-0.8,1.2-1.5,2-2c0.8-0.5,1.7-0.9,2.7-1.1c1-0.2,2-0.4,3-0.4c1.3,0,2.5,0.1,3.6,0.3c1.1,0.2,2,0.6,2.9,1.1
		c0.8,0.5,1.5,1.3,2,2.2s0.8,2.1,0.9,3.5h-3.7c-0.1-0.7-0.2-1.3-0.6-1.8c-0.3-0.5-0.7-0.9-1.2-1.2c-0.5-0.3-1-0.5-1.6-0.6
		c-0.6-0.1-1.2-0.2-1.8-0.2c-0.6,0-1.1,0-1.7,0.1c-0.6,0.1-1.1,0.2-1.6,0.5s-0.9,0.5-1.1,0.9c-0.3,0.4-0.4,0.8-0.4,1.4
		c0,0.6,0.2,1.2,0.7,1.6c0.5,0.4,1,0.8,1.7,1.1c0.7,0.3,1.5,0.5,2.4,0.7c0.9,0.2,1.8,0.4,2.6,0.6c0.9,0.2,1.9,0.5,2.7,0.7
		c0.9,0.3,1.7,0.7,2.4,1.2c0.7,0.5,1.2,1.1,1.7,1.8c0.4,0.7,0.6,1.6,0.6,2.7c0,1.4-0.3,2.5-0.9,3.4c-0.6,0.9-1.3,1.6-2.2,2.2
		c-0.9,0.6-2,0.9-3.1,1.2c-1.2,0.2-2.3,0.3-3.5,0.3c-1.3,0-2.5-0.1-3.6-0.4c-1.1-0.3-2.2-0.7-3-1.3c-0.9-0.6-1.6-1.4-2.1-2.4
		c-0.5-1-0.8-2.2-0.9-3.6h3.7C311.9,38,312.1,38.7,312.4,39.3z"/>
	<path fill="#FFFFFF" d="M341.3,21.6v3.3h-4.5V39c0,0.4,0,0.8,0.1,1.1s0.2,0.5,0.4,0.6c0.2,0.1,0.5,0.2,0.9,0.3
		c0.4,0,0.8,0.1,1.4,0.1h1.7v3.3h-2.9c-1,0-1.8-0.1-2.5-0.2c-0.7-0.1-1.2-0.4-1.7-0.7s-0.7-0.8-0.9-1.5c-0.2-0.6-0.3-1.5-0.3-2.5
		V24.9h-3.9v-3.3h3.9v-6.8h3.7v6.8H341.3z"/>
	<path fill="#FFFFFF" d="M357.2,19.8c0.4-1.3,1-2.5,1.9-3.5c0.9-1,1.9-1.8,3.2-2.3c1.3-0.6,2.8-0.8,4.4-0.8c1.3,0,2.6,0.2,3.8,0.6
		c1.2,0.4,2.2,1,3.1,1.7c0.9,0.7,1.6,1.7,2.1,2.8c0.5,1.1,0.8,2.4,0.8,3.9c0,1.4-0.2,2.6-0.6,3.6c-0.4,1.1-1,2-1.7,2.8
		c-0.7,0.8-1.5,1.6-2.4,2.3c-0.9,0.7-1.8,1.3-2.8,1.9c-1,0.6-1.9,1.2-2.9,1.7c-1,0.6-1.9,1.2-2.7,1.8c-0.8,0.6-1.5,1.3-2.1,2.1
		c-0.6,0.7-0.9,1.6-1.1,2.6h16v3.3h-20.4c0.1-1.8,0.5-3.4,1-4.7c0.5-1.3,1.2-2.4,2-3.4c0.8-1,1.7-1.8,2.7-2.5c1-0.7,2-1.4,3.1-2.1
		c1.3-0.8,2.5-1.6,3.5-2.3c1-0.7,1.8-1.4,2.5-2.1c0.7-0.7,1.2-1.5,1.5-2.3c0.3-0.8,0.5-1.8,0.5-2.9c0-0.8-0.2-1.6-0.5-2.3
		c-0.3-0.7-0.8-1.3-1.3-1.8c-0.5-0.5-1.2-0.9-1.9-1.1s-1.5-0.4-2.3-0.4c-1.1,0-2,0.2-2.8,0.7c-0.8,0.5-1.4,1-1.9,1.8
		c-0.5,0.7-0.9,1.6-1.1,2.5s-0.3,1.9-0.3,2.8h-3.7C356.6,22.6,356.8,21.2,357.2,19.8z"/>
	<path fill="#FFFFFF" d="M381.2,25.5c0.1-1.2,0.2-2.4,0.4-3.6c0.2-1.2,0.6-2.3,1-3.3c0.4-1.1,1-2,1.8-2.8c0.8-0.8,1.7-1.4,2.9-1.9
		c1.2-0.5,2.5-0.7,4.2-0.7s3,0.2,4.2,0.7c1.2,0.5,2.1,1.1,2.9,1.9c0.8,0.8,1.4,1.7,1.8,2.8s0.8,2.2,1,3.3c0.2,1.2,0.4,2.4,0.4,3.6
		c0.1,1.2,0.1,2.4,0.1,3.6c0,1.1,0,2.3-0.1,3.6c-0.1,1.2-0.2,2.4-0.4,3.6c-0.2,1.2-0.6,2.3-1,3.3c-0.4,1-1,2-1.8,2.7
		c-0.8,0.8-1.7,1.4-2.9,1.9c-1.1,0.5-2.5,0.7-4.2,0.7c-1.6,0-3-0.2-4.2-0.7c-1.2-0.5-2.1-1.1-2.9-1.9c-0.8-0.8-1.4-1.7-1.8-2.7
		c-0.4-1-0.8-2.1-1-3.3c-0.2-1.2-0.4-2.4-0.4-3.6c-0.1-1.2-0.1-2.4-0.1-3.6C381.1,27.9,381.1,26.7,381.2,25.5z M385.2,33
		c0.1,1.5,0.3,2.8,0.7,4.1c0.4,1.3,1,2.4,1.9,3.2c0.9,0.9,2.1,1.3,3.7,1.3c1.6,0,2.8-0.4,3.7-1.3c0.9-0.9,1.5-2,1.9-3.2
		c0.4-1.3,0.6-2.6,0.7-4.1c0.1-1.5,0.1-2.8,0.1-3.9c0-0.8,0-1.6,0-2.5c0-0.9-0.1-1.8-0.2-2.8s-0.3-1.8-0.6-2.7
		c-0.2-0.9-0.6-1.6-1.1-2.3c-0.5-0.7-1.1-1.2-1.8-1.6c-0.7-0.4-1.6-0.6-2.7-0.6c-1.1,0-1.9,0.2-2.7,0.6c-0.7,0.4-1.3,0.9-1.8,1.6
		c-0.5,0.7-0.9,1.4-1.1,2.3c-0.2,0.9-0.4,1.8-0.6,2.7s-0.2,1.8-0.2,2.8s0,1.8,0,2.5C385,30.2,385.1,31.5,385.2,33z"/>
	<path fill="#FFFFFF" d="M415.6,44.4V22h-8.1v-3c1.1,0,2.1-0.1,3.1-0.2c1-0.2,1.9-0.5,2.7-0.9c0.8-0.4,1.5-1,2-1.8
		c0.6-0.8,0.9-1.7,1.1-2.9h2.9v31.2H415.6z"/>
	<path fill="#FFFFFF" d="M450.8,33.8v3.3h-4.2v7.3H443v-7.3h-13.7v-3.6l14.2-20.3h3v20.6H450.8z M443,18.5L443,18.5l-10.5,15.3H443
		V18.5z"/>
</g>
<rect x="133.5" y="0.2" fill="#FFFFFF" width="3" height="54"/>
</svg>
