<?xml version="1.0" encoding="UTF-8" standalone="no"?>
<!-- Generator: Adobe Illustrator 17.1.0, SVG Export Plug-In . SVG Version: 6.00 Build 0)  -->

<svg
   xmlns:dc="http://purl.org/dc/elements/1.1/"
   xmlns:cc="http://creativecommons.org/ns#"
   xmlns:rdf="http://www.w3.org/1999/02/22-rdf-syntax-ns#"
   xmlns:svg="http://www.w3.org/2000/svg"
   xmlns="http://www.w3.org/2000/svg"
   xmlns:sodipodi="http://sodipodi.sourceforge.net/DTD/sodipodi-0.dtd"
   xmlns:inkscape="http://www.inkscape.org/namespaces/inkscape"
   version="1.1"
   id="Layer_1"
   x="0px"
   y="0px"
   viewBox="0 0 462.3 65.5"
   enable-background="new 0 0 462.3 65.5"
   xml:space="preserve"
   inkscape:version="0.48.4 r9939"
   width="100%"
   height="100%"
   sodipodi:docname="festicode-logo.svg"><metadata
     id="metadata41"><rdf:RDF><cc:Work
         rdf:about=""><dc:format>image/svg+xml</dc:format><dc:type
           rdf:resource="http://purl.org/dc/dcmitype/StillImage" /></cc:Work></rdf:RDF></metadata><defs
     id="defs39" /><sodipodi:namedview
     pagecolor="#ffffff"
     bordercolor="#666666"
     borderopacity="1"
     objecttolerance="10"
     gridtolerance="10"
     guidetolerance="10"
     inkscape:pageopacity="0"
     inkscape:pageshadow="2"
     inkscape:window-width="1301"
     inkscape:window-height="640"
     id="namedview37"
     showgrid="false"
     inkscape:zoom="0.63162449"
     inkscape:cx="-47.496575"
     inkscape:cy="32.75"
     inkscape:window-x="65"
     inkscape:window-y="24"
     inkscape:window-maximized="1"
     inkscape:current-layer="Layer_1" /><g
     transform="matrix(1,0,0,0.99999897,-9.6901386,-462.70603)"
     id="g3"
     style="fill:#464646;fill-opacity:1"><path
       fill="#FFFFFF"
       d="M105.9,462.7c-6.7-0.1-11.5,0-14.2,0.4c-5.3,0.7-11,6.9-13.5,11.3c-3.5,5.2-7.3,16.4-13,16.4   s-9.1-12.7-14.2-12.6c-5.1,0.1-7.7,11.7-15.5,11.7c-7.8,0-13.9-19.8-15.5-27.1H9.7c1.8,11.4,6.4,20.1,10.6,26.2   c2.1,3,4.4,5.8,7.1,8.1s4.6,3.9,9.8,4.1s9.9-8.4,13.1-8.5c3-0.1,3.8,3,2.7,5c-1.1,2-4.1,5.4-5.2,8.5c-1.5,4.4-2,8.4-1.9,11.2   l10.6,0c0.1-5.5,3.5-15.3,9-15.6c3.2,0,9,5.6,10.7,7.9s3.1,4.5,6.2,6.2c3.1,1.8,7.4,2,11.6,0.5c5.5-2,8.3-7.2,9.9-12.1   c1.7-4.9,2.4-10.4,3-15.6c0.6-5.2,0.7-8.3,1.3-11.5c0.1-0.7,0.4-3.1,2.6-3.6c2.3-0.5,17.9-0.1,17.9-0.1l0-10.4   C128.6,462.7,112.6,462.8,105.9,462.7L105.9,462.7z M97.8,473.3c-0.9,9.3-1.1,18.6-4,27.3c-0.7,2-3.3,7.6-6.2,5.9   c-0.4-0.2-1.5-1.4-3.1-3.5c-1.7-2.3-4.3-5.7-8.2-8.3c2.9-2.9,5.1-6.4,7-9.5c2.2-3.6,3.7-6.6,3.7-6.6c0,0,0,0,0,0   C89.2,474.4,93.9,472.4,97.8,473.3z"
       id="path5"
       style="fill:#464646;fill-opacity:1" /></g><g
     id="g7"
     style="fill:#464646;fill-opacity:1"><path
       fill="#FFFFFF"
       d="M175.3,13v3.5h-16.4v10h14.4V30h-14.4v14.4h-4.2V13H175.3z"
       id="path9"
       style="fill:#464646;fill-opacity:1" /><path
       fill="#FFFFFF"
       d="M195.4,42.9c-1.7,1.3-3.8,1.9-6.4,1.9c-1.8,0-3.4-0.3-4.7-0.9c-1.3-0.6-2.5-1.4-3.4-2.5   c-0.9-1.1-1.6-2.3-2-3.8c-0.5-1.5-0.7-3.1-0.8-4.8c0-1.7,0.3-3.3,0.8-4.7c0.5-1.4,1.3-2.7,2.2-3.7c1-1.1,2.1-1.9,3.4-2.5   c1.3-0.6,2.7-0.9,4.3-0.9c2,0,3.7,0.4,5,1.3c1.3,0.8,2.4,1.9,3.2,3.2c0.8,1.3,1.4,2.7,1.7,4.2c0.3,1.5,0.4,3,0.4,4.4h-17   c0,1,0.1,1.9,0.4,2.8c0.3,0.9,0.7,1.7,1.3,2.4c0.6,0.7,1.3,1.2,2.2,1.6c0.9,0.4,2,0.6,3.2,0.6c1.6,0,2.9-0.4,3.9-1.1   c1-0.7,1.7-1.8,2-3.3h3.7C198.2,39.7,197.1,41.6,195.4,42.9z M194.5,28.3c-0.3-0.8-0.8-1.5-1.4-2c-0.6-0.6-1.2-1-2-1.4   c-0.8-0.3-1.6-0.5-2.6-0.5c-1,0-1.8,0.2-2.6,0.5c-0.8,0.3-1.4,0.8-2,1.4c-0.6,0.6-1,1.3-1.3,2c-0.3,0.8-0.5,1.6-0.6,2.5h13.1   C195,29.9,194.8,29.1,194.5,28.3z"
       id="path11"
       style="fill:#464646;fill-opacity:1" /><path
       fill="#FFFFFF"
       d="M205.8,39.3c0.4,0.6,0.8,1,1.4,1.4c0.6,0.3,1.2,0.6,1.9,0.7c0.7,0.1,1.5,0.2,2.2,0.2c0.6,0,1.2,0,1.8-0.1   c0.6-0.1,1.2-0.2,1.8-0.5c0.5-0.2,1-0.6,1.3-1c0.4-0.5,0.5-1,0.5-1.7c0-1-0.4-1.7-1.1-2.2c-0.7-0.5-1.6-0.9-2.7-1.2   c-1.1-0.3-2.3-0.6-3.6-0.8c-1.3-0.2-2.5-0.6-3.6-1.1c-1.1-0.5-2-1.1-2.7-1.9c-0.7-0.8-1.1-2-1.1-3.4c0-1.1,0.3-2.1,0.8-2.9   c0.5-0.8,1.2-1.5,2-2c0.8-0.5,1.7-0.9,2.7-1.1c1-0.2,2-0.4,3-0.4c1.3,0,2.5,0.1,3.6,0.3c1.1,0.2,2,0.6,2.9,1.1   c0.8,0.5,1.5,1.3,2,2.2c0.5,0.9,0.8,2.1,0.9,3.5H216c-0.1-0.7-0.2-1.3-0.6-1.8c-0.3-0.5-0.7-0.9-1.2-1.2c-0.5-0.3-1-0.5-1.6-0.6   c-0.6-0.1-1.2-0.2-1.8-0.2c-0.6,0-1.1,0-1.7,0.1c-0.6,0.1-1.1,0.2-1.6,0.5c-0.5,0.2-0.9,0.5-1.1,0.9c-0.3,0.4-0.4,0.8-0.4,1.4   c0,0.6,0.2,1.2,0.7,1.6c0.5,0.4,1,0.8,1.7,1.1c0.7,0.3,1.5,0.5,2.4,0.7c0.9,0.2,1.8,0.4,2.6,0.6c0.9,0.2,1.9,0.5,2.7,0.7   c0.9,0.3,1.7,0.7,2.4,1.2c0.7,0.5,1.2,1.1,1.7,1.8c0.4,0.7,0.6,1.6,0.6,2.7c0,1.4-0.3,2.5-0.9,3.4c-0.6,0.9-1.3,1.6-2.2,2.2   c-0.9,0.6-2,0.9-3.1,1.2c-1.2,0.2-2.3,0.3-3.5,0.3c-1.3,0-2.5-0.1-3.6-0.4s-2.2-0.7-3-1.3c-0.9-0.6-1.6-1.4-2.1-2.4   c-0.5-1-0.8-2.2-0.9-3.6h3.7C205.2,38,205.4,38.7,205.8,39.3z"
       id="path13"
       style="fill:#464646;fill-opacity:1" /><path
       fill="#FFFFFF"
       d="M234.6,21.6v3.3h-4.5V39c0,0.4,0,0.8,0.1,1.1c0.1,0.3,0.2,0.5,0.4,0.6c0.2,0.1,0.5,0.2,0.9,0.3   c0.4,0,0.8,0.1,1.4,0.1h1.7v3.3h-2.9c-1,0-1.8-0.1-2.5-0.2c-0.7-0.1-1.2-0.4-1.7-0.7c-0.4-0.4-0.7-0.8-0.9-1.5   c-0.2-0.6-0.3-1.5-0.3-2.5V24.9h-3.9v-3.3h3.9v-6.8h3.7v6.8H234.6z"
       id="path15"
       style="fill:#464646;fill-opacity:1" /><path
       fill="#FFFFFF"
       d="M238.9,17.5V13h3.7v4.6H238.9z M242.7,21.6v22.7h-3.7V21.6H242.7z"
       id="path17"
       style="fill:#464646;fill-opacity:1" /><path
       fill="#FFFFFF"
       d="M268.1,17.4c-1.6-1.1-3.5-1.7-5.7-1.7c-1.9,0-3.5,0.4-4.8,1.1c-1.3,0.7-2.4,1.6-3.3,2.8   c-0.9,1.2-1.5,2.5-1.9,4.1c-0.4,1.5-0.6,3.1-0.6,4.7c0,1.8,0.2,3.5,0.6,5.1c0.4,1.6,1,3,1.9,4.2c0.9,1.2,2,2.1,3.3,2.8   c1.3,0.7,3,1.1,4.8,1.1c1.4,0,2.6-0.2,3.7-0.7c1.1-0.5,2-1.1,2.8-1.9c0.8-0.8,1.4-1.8,1.8-2.9c0.4-1.1,0.7-2.3,0.8-3.6h4.2   c-0.4,4-1.8,7-4.1,9.2c-2.3,2.2-5.5,3.3-9.5,3.3c-2.4,0-4.6-0.4-6.4-1.3c-1.8-0.8-3.3-2-4.5-3.5c-1.2-1.5-2.1-3.2-2.7-5.2   c-0.6-2-0.9-4.1-0.9-6.4s0.3-4.4,1-6.4c0.6-2,1.6-3.8,2.8-5.3s2.8-2.7,4.7-3.5c1.9-0.9,4-1.3,6.4-1.3c1.6,0,3.2,0.2,4.7,0.7   c1.5,0.4,2.8,1.1,3.9,1.9c1.1,0.9,2.1,1.9,2.9,3.2s1.3,2.7,1.5,4.4h-4.2C270.7,20.2,269.7,18.5,268.1,17.4z"
       id="path19"
       style="fill:#464646;fill-opacity:1" /><path
       fill="#FFFFFF"
       d="M279.7,28.3c0.5-1.5,1.2-2.7,2.1-3.8c0.9-1.1,2.1-1.9,3.5-2.5c1.4-0.6,3-0.9,4.7-0.9c1.8,0,3.4,0.3,4.8,0.9   c1.4,0.6,2.5,1.5,3.5,2.5c0.9,1.1,1.6,2.3,2.1,3.8s0.7,3,0.7,4.7c0,1.7-0.2,3.2-0.7,4.7c-0.5,1.4-1.2,2.7-2.1,3.8   c-0.9,1.1-2.1,1.9-3.5,2.5c-1.4,0.6-3,0.9-4.8,0.9c-1.8,0-3.4-0.3-4.7-0.9c-1.4-0.6-2.5-1.4-3.5-2.5c-0.9-1.1-1.6-2.3-2.1-3.8   c-0.5-1.4-0.7-3-0.7-4.7C279,31.4,279.2,29.8,279.7,28.3z M283.5,36.7c0.4,1.1,0.9,2,1.5,2.7s1.4,1.3,2.3,1.6   c0.9,0.4,1.8,0.6,2.7,0.6c1,0,1.9-0.2,2.7-0.6c0.9-0.4,1.6-0.9,2.3-1.6c0.6-0.7,1.1-1.6,1.5-2.7c0.4-1.1,0.5-2.3,0.5-3.7   c0-1.4-0.2-2.6-0.5-3.7c-0.4-1.1-0.9-2-1.5-2.7c-0.6-0.7-1.4-1.3-2.3-1.7c-0.9-0.4-1.8-0.6-2.7-0.6c-1,0-1.9,0.2-2.7,0.6   c-0.9,0.4-1.6,0.9-2.3,1.7c-0.6,0.7-1.2,1.6-1.5,2.7c-0.4,1.1-0.5,2.3-0.5,3.7C283,34.4,283.1,35.6,283.5,36.7z"
       id="path21"
       style="fill:#464646;fill-opacity:1" /><path
       fill="#FFFFFF"
       d="M322,44.4v-3.1H322c-0.6,1.3-1.6,2.2-2.9,2.7c-1.3,0.6-2.8,0.8-4.4,0.8c-1.8,0-3.3-0.3-4.6-1   c-1.3-0.6-2.4-1.5-3.3-2.6c-0.9-1.1-1.5-2.3-2-3.8c-0.4-1.4-0.7-3-0.7-4.6c0-1.6,0.2-3.1,0.6-4.6c0.4-1.4,1.1-2.7,1.9-3.8   s1.9-1.9,3.3-2.6c1.3-0.6,2.8-0.9,4.5-0.9c0.6,0,1.2,0.1,1.9,0.2c0.7,0.1,1.3,0.3,2,0.6c0.7,0.3,1.3,0.6,1.9,1.1   c0.6,0.5,1.1,1,1.5,1.7h0.1V13h3.7v31.4H322z M308.6,36.3c0.3,1,0.7,1.9,1.3,2.7c0.6,0.8,1.3,1.4,2.2,1.9c0.9,0.5,1.9,0.7,3.1,0.7   c1.3,0,2.3-0.2,3.2-0.7c0.9-0.5,1.6-1.1,2.2-2c0.6-0.8,1-1.7,1.2-2.7c0.2-1,0.4-2.1,0.4-3.1c0-1.1-0.1-2.2-0.4-3.2   c-0.3-1-0.7-2-1.3-2.7c-0.6-0.8-1.3-1.4-2.2-1.9c-0.9-0.5-2-0.7-3.3-0.7c-1.3,0-2.3,0.2-3.2,0.7c-0.9,0.5-1.6,1.2-2.1,2   c-0.5,0.8-0.9,1.8-1.1,2.8c-0.2,1.1-0.4,2.1-0.4,3.3C308.2,34.3,308.3,35.3,308.6,36.3z"
       id="path23"
       style="fill:#464646;fill-opacity:1" /><path
       fill="#FFFFFF"
       d="M347.6,42.9c-1.7,1.3-3.8,1.9-6.4,1.9c-1.8,0-3.4-0.3-4.7-0.9c-1.3-0.6-2.5-1.4-3.4-2.5   c-0.9-1.1-1.6-2.3-2-3.8c-0.5-1.5-0.7-3.1-0.8-4.8c0-1.7,0.3-3.3,0.8-4.7s1.3-2.7,2.2-3.7c1-1.1,2.1-1.9,3.4-2.5   c1.3-0.6,2.7-0.9,4.3-0.9c2,0,3.7,0.4,5,1.3c1.3,0.8,2.4,1.9,3.2,3.2c0.8,1.3,1.4,2.7,1.7,4.2c0.3,1.5,0.4,3,0.4,4.4h-17   c0,1,0.1,1.9,0.4,2.8c0.3,0.9,0.7,1.7,1.3,2.4c0.6,0.7,1.3,1.2,2.2,1.6c0.9,0.4,2,0.6,3.2,0.6c1.6,0,2.9-0.4,3.9-1.1   c1-0.7,1.7-1.8,2-3.3h3.7C350.4,39.7,349.3,41.6,347.6,42.9z M346.7,28.3c-0.3-0.8-0.8-1.5-1.4-2c-0.6-0.6-1.2-1-2-1.4   c-0.8-0.3-1.6-0.5-2.6-0.5c-1,0-1.8,0.2-2.6,0.5c-0.8,0.3-1.4,0.8-2,1.4c-0.6,0.6-1,1.3-1.3,2c-0.3,0.8-0.5,1.6-0.6,2.5h13.1   C347.3,29.9,347.1,29.1,346.7,28.3z"
       id="path25"
       style="fill:#464646;fill-opacity:1" /><path
       fill="#FFFFFF"
       d="M367,19.8c0.4-1.3,1-2.5,1.9-3.5c0.9-1,1.9-1.8,3.2-2.3c1.3-0.6,2.8-0.8,4.4-0.8c1.3,0,2.6,0.2,3.8,0.6   c1.2,0.4,2.2,1,3.1,1.7c0.9,0.7,1.6,1.7,2.1,2.8c0.5,1.1,0.8,2.4,0.8,3.9c0,1.4-0.2,2.6-0.6,3.6c-0.4,1.1-1,2-1.7,2.8   c-0.7,0.8-1.5,1.6-2.4,2.3c-0.9,0.7-1.8,1.3-2.8,1.9c-1,0.6-1.9,1.2-2.9,1.7c-1,0.6-1.9,1.2-2.7,1.8c-0.8,0.6-1.5,1.3-2.1,2.1   c-0.6,0.7-0.9,1.6-1.1,2.6h16v3.3h-20.4c0.1-1.8,0.5-3.4,1-4.7c0.5-1.3,1.2-2.4,2-3.4c0.8-1,1.7-1.8,2.7-2.5c1-0.7,2-1.4,3.1-2.1   c1.3-0.8,2.5-1.6,3.5-2.3c1-0.7,1.8-1.4,2.5-2.1c0.7-0.7,1.2-1.5,1.5-2.3c0.3-0.8,0.5-1.8,0.5-2.9c0-0.8-0.2-1.6-0.5-2.3   c-0.3-0.7-0.8-1.3-1.3-1.8c-0.5-0.5-1.2-0.9-1.9-1.1s-1.5-0.4-2.3-0.4c-1.1,0-2,0.2-2.8,0.7c-0.8,0.5-1.4,1-1.9,1.8   c-0.5,0.7-0.9,1.6-1.1,2.5s-0.3,1.9-0.3,2.8h-3.7C366.4,22.6,366.6,21.2,367,19.8z"
       id="path27"
       style="fill:#464646;fill-opacity:1" /><path
       fill="#FFFFFF"
       d="M390.9,25.5c0.1-1.2,0.2-2.4,0.4-3.6c0.2-1.2,0.6-2.3,1-3.3c0.4-1.1,1-2,1.8-2.8c0.8-0.8,1.7-1.4,2.9-1.9   c1.2-0.5,2.5-0.7,4.2-0.7s3,0.2,4.2,0.7c1.2,0.5,2.1,1.1,2.9,1.9c0.8,0.8,1.4,1.7,1.8,2.8s0.8,2.2,1,3.3c0.2,1.2,0.4,2.4,0.4,3.6   c0.1,1.2,0.1,2.4,0.1,3.6c0,1.1,0,2.3-0.1,3.6c-0.1,1.2-0.2,2.4-0.4,3.6c-0.2,1.2-0.6,2.3-1,3.3c-0.4,1-1,2-1.8,2.7   c-0.8,0.8-1.7,1.4-2.9,1.9c-1.1,0.5-2.5,0.7-4.2,0.7c-1.6,0-3-0.2-4.2-0.7c-1.2-0.5-2.1-1.1-2.9-1.9c-0.8-0.8-1.4-1.7-1.8-2.7   c-0.4-1-0.8-2.1-1-3.3c-0.2-1.2-0.4-2.4-0.4-3.6c-0.1-1.2-0.1-2.4-0.1-3.6C390.8,27.9,390.9,26.7,390.9,25.5z M394.9,33   c0.1,1.5,0.3,2.8,0.7,4.1c0.4,1.3,1,2.4,1.9,3.2c0.9,0.9,2.1,1.3,3.7,1.3c1.6,0,2.8-0.4,3.7-1.3c0.9-0.9,1.5-2,1.9-3.2   c0.4-1.3,0.6-2.6,0.7-4.1c0.1-1.5,0.1-2.8,0.1-3.9c0-0.8,0-1.6,0-2.5c0-0.9-0.1-1.8-0.2-2.8s-0.3-1.8-0.6-2.7   c-0.2-0.9-0.6-1.6-1.1-2.3c-0.5-0.7-1.1-1.2-1.8-1.6c-0.7-0.4-1.6-0.6-2.7-0.6c-1.1,0-1.9,0.2-2.7,0.6c-0.7,0.4-1.3,0.9-1.8,1.6   c-0.5,0.7-0.9,1.4-1.1,2.3c-0.2,0.9-0.4,1.8-0.6,2.7s-0.2,1.8-0.2,2.8s0,1.8,0,2.5C394.8,30.2,394.8,31.5,394.9,33z"
       id="path29"
       style="fill:#464646;fill-opacity:1" /><path
       fill="#FFFFFF"
       d="M425.4,44.4V22h-8.1v-3c1.1,0,2.1-0.1,3.1-0.2c1-0.2,1.9-0.5,2.7-0.9c0.8-0.4,1.5-1,2-1.8   c0.6-0.8,0.9-1.7,1.1-2.9h2.9v31.2H425.4z"
       id="path31"
       style="fill:#464646;fill-opacity:1" /><path
       fill="#FFFFFF"
       d="M460.5,33.8v3.3h-4.2v7.3h-3.5v-7.3h-13.7v-3.6l14.2-20.3h3v20.6H460.5z M452.8,18.5L452.8,18.5l-10.5,15.3   h10.5V18.5z"
       id="path33"
       style="fill:#464646;fill-opacity:1" /></g><rect
     x="133.5"
     y="0.2"
     fill="#FFFFFF"
     width="3"
     height="54"
     id="rect35" /></svg>