<?xml version="1.0" encoding="utf-8"?>
<!-- Generator: Adobe Illustrator 17.1.0, SVG Export Plug-In . SVG Version: 6.00 Build 0)  -->
<!DOCTYPE svg PUBLIC "-//W3C//DTD SVG 1.1//EN" "http://www.w3.org/Graphics/SVG/1.1/DTD/svg11.dtd">
<svg version="1.1" id="Layer_1" xmlns="http://www.w3.org/2000/svg" xmlns:xlink="http://www.w3.org/1999/xlink" x="0px" y="0px"
	 viewBox="0.1 220 959.9 178.1" enable-background="new 0.1 220 959.9 178.1" xml:space="preserve">
<g transform="matrix(1,0,0,0.99999897,-9.6901386,-462.70603)">
	<path fill="#FFFFFF" d="M316.3,684.2c-21.4-0.3-36.6,0-45.3,1.3c-16.9,2.2-35.1,22-43,36c-11.2,16.6-23.3,52.3-41.4,52.3
		s-29-40.5-45.3-40.2s-24.6,37.3-49.4,37.3s-44.3-63.1-49.4-86.4H9.8c5.8,36.3,20.4,64.1,33.8,83.5c6.7,9.6,14,18.5,22.6,25.8
		c8.6,7.3,14.7,12.4,31.2,13c16.6,0.7,31.5-26.8,41.7-27.1c9.6-0.3,12.1,9.6,8.6,16s-13,17.2-16.6,27.1c-4.8,14-6.4,26.8-6.1,35.7
		h33.8c0.3-17.5,11.2-48.8,28.7-49.7c10.2,0,28.7,17.8,34.1,25.2c5.4,7.3,9.9,14.3,19.8,19.8c9.9,5.8,23.6,6.4,37,1.6
		c17.5-6.4,26.5-22.9,31.5-38.6c5.4-15.6,7.6-33.1,9.6-49.7c1.9-16.6,2.2-26.5,4.1-36.6c0.3-2.2,1.3-9.9,8.3-11.5
		c7.3-1.6,57.1-0.3,57.1-0.3v-33.1C388.7,684.2,337.7,684.6,316.3,684.2L316.3,684.2z M290.5,718c-2.9,29.7-3.5,59.3-12.7,87
		c-2.2,6.4-10.5,24.2-19.8,18.8c-1.3-0.7-4.8-4.5-9.9-11.2c-5.4-7.3-13.7-18.1-26.1-26.5c9.2-9.2,16.3-20.4,22.3-30.3
		c7-11.5,11.8-21.1,11.8-21.1l0,0C263.1,721.5,278.1,715.1,290.5,718z"/>
</g>
<g>
	<path fill="#FFFFFF" d="M473,229.2c-2.8-1.9-6.1-3-10-3c-3.3,0-6.1,0.7-8.4,1.9c-2.3,1.2-4.2,2.8-5.8,4.9c-1.6,2.1-2.6,4.4-3.3,7.2
		c-0.7,2.6-1,5.5-1,8.3c0,3.2,0.4,6.1,1,9c0.7,2.8,1.8,5.3,3.3,7.4s3.5,3.7,5.8,4.9c2.3,1.2,5.3,1.9,8.4,1.9c2.5,0,4.6-0.4,6.5-1.2
		c1.9-0.8,3.5-1.9,4.9-3.3c1.4-1.4,2.5-3.2,3.2-5.1c0.7-1.9,1.2-4.1,1.4-6.3h7.4c-0.7,7-3.2,12.3-7.2,16.1
		c-4.1,3.9-9.6,5.8-16.7,5.8c-4.2,0-8.1-0.7-11.2-2.3c-3.2-1.4-5.8-3.5-7.9-6.1c-2.1-2.6-3.7-5.6-4.7-9.2S437,253,437,249
		c0-4,0.5-7.7,1.8-11.2c1-3.5,2.8-6.7,4.9-9.3c2.1-2.6,4.9-4.7,8.3-6.1c3.3-1.6,7-2.3,11.2-2.3c2.8,0,5.6,0.4,8.3,1.2
		c2.6,0.7,4.9,1.9,6.9,3.3c1.9,1.6,3.7,3.3,5.1,5.6c1.4,2.3,2.3,4.7,2.6,7.7h-7.4C477.8,234.1,475.9,231.1,473,229.2z"/>
	<path fill="#FFFFFF" d="M493.6,248.4c0.8-2.6,2.1-4.7,3.7-6.7s3.7-3.3,6.1-4.4c2.5-1,5.3-1.6,8.3-1.6c3.2,0,5.9,0.5,8.4,1.6
		c2.5,1,4.4,2.6,6.1,4.4s2.8,4.1,3.7,6.7s1.2,5.3,1.2,8.3s-0.4,5.6-1.2,8.3c-0.8,2.5-2.1,4.7-3.7,6.7c-1.6,1.9-3.7,3.3-6.1,4.4
		c-2.5,1-5.3,1.6-8.4,1.6c-3.2,0-5.9-0.5-8.3-1.6c-2.5-1-4.4-2.5-6.1-4.4c-1.6-1.9-2.8-4.1-3.7-6.7c-0.8-2.5-1.2-5.3-1.2-8.3
		C492.4,253.8,492.7,251,493.6,248.4z M500.3,263.1c0.7,1.9,1.6,3.5,2.6,4.7s2.5,2.3,4.1,2.8c1.6,0.7,3.2,1,4.7,1s3.3-0.4,4.7-1
		c1.6-0.7,2.8-1.6,4.1-2.8c1-1.2,1.9-2.8,2.6-4.7c0.7-1.9,0.8-4.1,0.8-6.5c0-2.5-0.4-4.6-0.8-6.5c-0.7-1.9-1.6-3.5-2.6-4.7
		c-1-1.2-2.5-2.3-4.1-3s-3.2-1-4.7-1s-3.3,0.4-4.7,1c-1.6,0.7-2.8,1.6-4.1,3c-1,1.2-2.1,2.8-2.6,4.7c-0.7,1.9-0.8,4.1-0.8,6.5
		C499.2,259.1,499.5,261.2,500.3,263.1z"/>
	<path fill="#FFFFFF" d="M567.9,276.6v-5.5h-0.2c-1,2.3-2.8,3.9-5.1,4.7c-2.3,1-4.9,1.4-7.7,1.4c-3.2,0-5.8-0.5-8.1-1.8
		c-2.3-1-4.2-2.6-5.8-4.6c-1.6-1.9-2.6-4.1-3.5-6.7c-0.7-2.5-1.2-5.3-1.2-8.1c0-2.8,0.4-5.5,1-8.1c0.7-2.5,1.9-4.7,3.3-6.7
		c1.6-1.9,3.3-3.3,5.8-4.6c2.3-1,4.9-1.6,8.1-1.6c1,0,2.1,0.2,3.3,0.4c1.2,0.2,2.3,0.5,3.5,1c1.2,0.5,2.3,1,3.3,1.9
		c1,0.8,1.9,1.8,2.6,3h0.2v-20.2h6.5v55.1H567.9L567.9,276.6z M544.4,262.4c0.5,1.8,1.2,3.3,2.3,4.7c1,1.4,2.3,2.5,3.9,3.3
		c1.6,0.8,3.3,1.2,5.5,1.2c2.3,0,4.1-0.4,5.6-1.2s2.8-1.9,3.9-3.5c1-1.4,1.8-3,2.1-4.7c0.4-1.8,0.7-3.7,0.7-5.5
		c0-1.9-0.2-3.9-0.7-5.6s-1.2-3.5-2.3-4.7c-1-1.4-2.3-2.5-3.9-3.3c-1.6-0.8-3.5-1.2-5.8-1.2s-4.1,0.4-5.6,1.2
		c-1.6,0.8-2.8,2.1-3.7,3.5s-1.6,3.2-1.9,4.9c-0.4,1.9-0.7,3.7-0.7,5.8C543.6,258.9,543.8,260.7,544.4,262.4z"/>
	<path fill="#FFFFFF" d="M612.9,274c-3,2.3-6.7,3.3-11.2,3.3c-3.2,0-5.9-0.5-8.3-1.6c-2.3-1-4.4-2.5-5.9-4.4
		c-1.6-1.9-2.8-4.1-3.5-6.7c-0.8-2.6-1.2-5.5-1.4-8.4c0-3,0.5-5.8,1.4-8.3s2.3-4.7,3.9-6.5c1.8-1.9,3.7-3.3,5.9-4.4
		c2.2-1,4.7-1.6,7.6-1.6c3.5,0,6.5,0.7,8.8,2.3c2.3,1.4,4.2,3.3,5.6,5.6c1.4,2.3,2.5,4.7,3,7.4c0.5,2.6,0.7,5.3,0.7,7.7h-29.8
		c0,1.8,0.2,3.3,0.7,4.9c0.5,1.6,1.2,3,2.3,4.2c1,1.2,2.3,2.1,3.9,2.8c1.6,0.7,3.5,1,5.6,1c2.8,0,5.1-0.7,6.9-1.9s3-3.2,3.5-5.8h6.5
		C617.8,268.4,615.8,271.7,612.9,274z M611.3,248.4c-0.5-1.4-1.4-2.6-2.5-3.5c-1-1-2.1-1.8-3.5-2.5c-1.4-0.5-2.8-0.8-4.6-0.8
		c-1.8,0-3.2,0.4-4.6,0.8c-1.4,0.5-2.5,1.4-3.5,2.5c-1,1-1.8,2.3-2.3,3.5c-0.5,1.4-0.8,2.8-1,4.4h23
		C612.1,251.2,611.8,249.8,611.3,248.4z"/>
	<path fill="#FFFFFF" d="M663.3,221.5v6.1h-28.8v17.6h25.3v6.1h-25.3v25.3h-7.4v-55.1L663.3,221.5L663.3,221.5z"/>
	<path fill="#FFFFFF" d="M698.6,274c-3,2.3-6.7,3.3-11.2,3.3c-3.2,0-5.9-0.5-8.3-1.6c-2.3-1-4.4-2.5-5.9-4.4
		c-1.6-1.9-2.8-4.1-3.5-6.7c-0.8-2.6-1.2-5.5-1.4-8.4c0-3,0.5-5.8,1.4-8.3c0.8-2.5,2.3-4.7,3.9-6.5c1.8-1.9,3.7-3.3,5.9-4.4
		c2.3-1,4.7-1.6,7.6-1.6c3.5,0,6.5,0.7,8.8,2.3c2.3,1.4,4.2,3.3,5.6,5.6c1.4,2.3,2.5,4.7,3,7.4c0.5,2.6,0.7,5.3,0.7,7.7h-29.8
		c0,1.8,0.2,3.3,0.7,4.9c0.5,1.6,1.2,3,2.3,4.2c1,1.2,2.3,2.1,3.9,2.8c1.6,0.7,3.5,1,5.6,1c2.8,0,5.1-0.7,6.9-1.9s3-3.2,3.5-5.8h6.5
		C703.5,268.4,701.6,271.7,698.6,274z M697,248.4c-0.5-1.4-1.4-2.6-2.5-3.5c-1-1-2.1-1.8-3.5-2.5c-1.4-0.5-2.8-0.8-4.6-0.8
		c-1.8,0-3.2,0.4-4.6,0.8c-1.4,0.5-2.5,1.4-3.5,2.5c-1,1-1.8,2.3-2.3,3.5c-0.5,1.4-0.8,2.8-1,4.4h23
		C698,251.2,697.7,249.8,697,248.4z"/>
	<path fill="#FFFFFF" d="M716.8,267.7c0.7,1,1.4,1.8,2.5,2.5c1,0.5,2.1,1,3.3,1.2c1.2,0.2,2.6,0.4,3.9,0.4c1,0,2.1,0,3.2-0.2
		s2.1-0.4,3.2-0.8c0.8-0.4,1.8-1,2.3-1.8c0.7-0.8,0.8-1.8,0.8-3c0-1.8-0.7-3-1.9-3.9c-1.2-0.8-2.8-1.6-4.7-2.1
		c-1.9-0.5-4.1-1-6.3-1.4s-4.4-1-6.3-1.9c-1.9-0.8-3.5-1.9-4.7-3.3c-1.2-1.4-1.9-3.5-1.9-5.9c0-1.9,0.5-3.7,1.4-5.1
		c0.8-1.4,2.1-2.6,3.5-3.5c1.4-0.8,3-1.6,4.7-1.9c1.8-0.4,3.5-0.7,5.3-0.7c2.3,0,4.4,0.2,6.3,0.5c1.9,0.4,3.5,1,5.1,1.9
		c1.4,0.8,2.6,2.3,3.5,3.9c0.8,1.6,1.4,3.7,1.6,6.1H735c-0.2-1.2-0.4-2.3-1-3.2c-0.5-0.8-1.2-1.6-2.1-2.1c-0.9-0.5-1.8-0.8-2.8-1
		c-1-0.2-2.1-0.4-3.2-0.4s-1.9,0-3,0.2c-1,0.2-1.9,0.4-2.8,0.8c-0.8,0.5-1.6,0.8-1.9,1.6c-0.5,0.7-0.7,1.4-0.7,2.5
		c0,1.1,0.4,2.1,1.2,2.8s1.8,1.4,3,1.9c1.2,0.5,2.6,0.8,4.2,1.2c1.6,0.4,3.2,0.7,4.6,1c1.6,0.4,3.3,0.8,4.7,1.2
		c1.6,0.5,3,1.2,4.2,2.1c1.2,0.8,2.1,1.9,3,3.2c0.7,1.2,1,2.8,1,4.7c0,2.5-0.5,4.4-1.6,5.9s-2.3,2.8-3.9,3.9c-1.6,1-3.5,1.6-5.5,2.1
		c-2.1,0.4-4.1,0.5-6.1,0.5c-2.3,0-4.4-0.2-6.3-0.7c-1.9-0.5-3.9-1.2-5.3-2.3c-1.6-1-2.8-2.5-3.7-4.2c-0.9-1.7-1.4-3.9-1.6-6.3h6.5
		C716,265.4,716.3,266.6,716.8,267.7z"/>
	<path fill="#FFFFFF" d="M767.6,236.6v5.8h-7.9v24.8c0,0.7,0,1.4,0.2,1.9s0.4,0.8,0.7,1c0.4,0.2,0.8,0.4,1.6,0.5
		c0.7,0,1.4,0.2,2.5,0.2h3v5.8h-5.1c-1.8,0-3.2-0.2-4.4-0.4s-2.1-0.7-3-1.2s-1.2-1.4-1.6-2.6c-0.4-1-0.5-2.6-0.5-4.4v-25.7h-6.9
		v-5.8h6.9v-12h6.5v12L767.6,236.6L767.6,236.6z"/>
	<path fill="#FFFFFF" d="M795.5,233.4c0.7-2.3,1.8-4.4,3.3-6.1c1.6-1.8,3.3-3.2,5.6-4.1c2.3-1,4.9-1.4,7.7-1.4c2.3,0,4.6,0.4,6.7,1
		c2.1,0.7,3.9,1.8,5.5,3c1.6,1.2,2.8,3,3.7,4.9c0.9,1.9,1.4,4.2,1.4,6.9c0,2.5-0.4,4.6-1,6.3c-0.7,1.9-1.8,3.5-3,4.9
		c-1.2,1.4-2.6,2.8-4.2,4.1c-1.6,1.2-3.2,2.3-4.9,3.3c-1.8,1-3.3,2.1-5.1,3c-1.8,1-3.3,2.1-4.7,3.2c-1.4,1-2.6,2.3-3.7,3.7
		c-1,1.2-1.6,2.8-1.9,4.6H829v5.8h-35.9c0.2-3.2,0.8-5.9,1.8-8.3c0.8-2.3,2.1-4.2,3.5-5.9c1.4-1.8,3-3.2,4.7-4.4
		c1.8-1.2,3.5-2.5,5.5-3.7c2.3-1.4,4.4-2.8,6.1-4.1c1.8-1.3,3.2-2.5,4.4-3.7c1.2-1.2,2.1-2.6,2.6-4.1c0.5-1.4,0.8-3.2,0.8-5.1
		c0-1.4-0.4-2.8-0.8-4.1c-0.5-1.2-1.4-2.3-2.3-3.2c-0.9-0.8-2.1-1.6-3.3-1.9c-1.2-0.4-2.6-0.7-4.1-0.7c-1.9,0-3.5,0.4-4.9,1.2
		c-1.4,0.8-2.5,1.8-3.3,3.2c-0.8,1.2-1.6,2.8-1.9,4.4c-0.4,1.6-0.5,3.3-0.5,4.9h-6.5C794.5,238.4,794.9,235.9,795.5,233.4z"/>
	<path fill="#FFFFFF" d="M837.7,243.4c0.2-2.1,0.4-4.2,0.7-6.3c0.4-2.1,1-4.1,1.8-5.8c0.7-1.9,1.8-3.5,3.2-4.9
		c1.4-1.4,3-2.5,5.1-3.3c2.1-0.8,4.4-1.2,7.4-1.2c3,0,5.3,0.4,7.4,1.2c2.1,0.8,3.7,1.9,5.1,3.3s2.5,3,3.2,4.9
		c0.7,1.9,1.4,3.9,1.8,5.8c0.4,2.1,0.7,4.2,0.7,6.3c0.2,2.1,0.2,4.2,0.2,6.3c0,1.9,0,4.1-0.2,6.3c-0.2,2.1-0.4,4.2-0.7,6.3
		c-0.4,2.1-1,4.1-1.8,5.8c-0.7,1.8-1.8,3.5-3.2,4.7c-1.4,1.4-3,2.5-5.1,3.3c-1.9,0.8-4.4,1.2-7.4,1.2c-2.8,0-5.3-0.4-7.4-1.2
		c-2.1-0.8-3.7-1.9-5.1-3.3c-1.4-1.4-2.5-3-3.2-4.7c-0.7-1.8-1.4-3.7-1.8-5.8c-0.4-2.1-0.7-4.2-0.7-6.3c-0.2-2.1-0.2-4.2-0.2-6.3
		C837.5,247.6,837.5,245.6,837.7,243.4z M844.7,256.6c0.2,2.6,0.5,4.9,1.2,7.2c0.7,2.3,1.8,4.2,3.3,5.6c1.6,1.6,3.7,2.3,6.5,2.3
		c2.8,0,4.9-0.7,6.5-2.3s2.6-3.5,3.3-5.6c0.7-2.3,1-4.6,1.2-7.2c0.2-2.6,0.2-4.9,0.2-6.9c0-1.4,0-2.8,0-4.4c0-1.6-0.2-3.2-0.4-4.9
		s-0.5-3.2-1-4.7c-0.4-1.6-1-2.8-1.9-4.1c-0.9-1.3-1.9-2.1-3.2-2.8c-1.2-0.7-2.8-1-4.7-1s-3.3,0.4-4.7,1c-1.2,0.7-2.3,1.6-3.2,2.8
		c-0.8,1.2-1.6,2.5-1.9,4.1c-0.4,1.6-0.7,3.2-1,4.7c-0.3,1.6-0.4,3.2-0.4,4.9c0,1.8,0,3.2,0,4.4C844.4,251.7,844.6,254,844.7,256.6z
		"/>
	<path fill="#FFFFFF" d="M898.1,276.6v-39.4h-14.3V232c1.9,0,3.7-0.2,5.5-0.4c1.8-0.4,3.3-0.8,4.7-1.6s2.6-1.8,3.5-3.2
		c1-1.4,1.6-3,1.9-5.1h5.1v54.8H898.1z"/>
	<path fill="#FFFFFF" d="M960,258v5.8h-7.4v12.8h-6.3v-12.8h-24.1v-6.3l24.9-35.7h5.3V258H960z M946.3,231.1L946.3,231.1L927.8,258
		h18.4V231.1z"/>
</g>
<rect x="409" y="221.7" fill="#FFFFFF" width="6.1" height="176.4"/>
<g>
	<path fill="#FFFFFF" d="M468,297.8v3.5h-15.1v39.8h-4.1v-39.8h-15v-3.5H468z"/>
	<path fill="#FFFFFF" d="M487.6,310.2c1.8,0.9,3.4,2.1,4.6,3.6c1.3,1.5,2.2,3.2,2.9,5.2c0.7,2,1,4.1,1,6.4c0,2.2-0.3,4.4-1,6.4
		c-0.7,2-1.6,3.8-2.9,5.2c-1.3,1.5-2.8,2.7-4.6,3.6c-1.8,0.8-3.9,1.3-6.4,1.3c-2.4,0-4.5-0.4-6.3-1.3c-1.8-0.8-3.4-2.1-4.6-3.6
		c-1.3-1.5-2.2-3.2-2.9-5.2c-0.7-2-1-4.1-1-6.4c0-2.2,0.3-4.4,1-6.4c0.7-2,1.6-3.8,2.9-5.2c1.3-1.5,2.8-2.7,4.6-3.6
		c1.8-0.9,3.9-1.3,6.3-1.3C483.6,308.9,485.8,309.4,487.6,310.2z M476.5,313.3c-1.4,0.8-2.5,1.8-3.4,3s-1.6,2.7-2.1,4.2
		c-0.5,1.6-0.7,3.2-0.7,4.9c0,1.6,0.2,3.3,0.7,4.9c0.5,1.6,1.2,3,2.1,4.2c0.9,1.3,2.1,2.2,3.4,3c1.4,0.8,3,1.2,4.8,1.2
		s3.4-0.4,4.8-1.2c1.4-0.8,2.5-1.8,3.4-3s1.6-2.7,2.1-4.2c0.5-1.6,0.7-3.2,0.7-4.9c0-1.6-0.2-3.3-0.7-4.9c-0.5-1.6-1.2-3-2.1-4.2
		c-0.9-1.3-2.1-2.2-3.4-3c-1.4-0.8-3-1.2-4.8-1.2S477.8,312.5,476.5,313.3z"/>
	<path fill="#FFFFFF" d="M530.8,344.8c-0.5,1.9-1.3,3.5-2.4,4.7c-1.1,1.3-2.5,2.3-4.2,3c-1.8,0.7-3.9,1-6.5,1
		c-1.6,0-3.1-0.2-4.6-0.5c-1.5-0.4-2.9-0.9-4.1-1.7s-2.2-1.8-3-2.9c-0.8-1.2-1.2-2.6-1.3-4.3h3.8c0.2,1.2,0.6,2.2,1.2,3
		c0.6,0.8,1.3,1.4,2.1,1.9c0.8,0.5,1.8,0.8,2.8,1.1c1,0.2,2.1,0.4,3.1,0.4c3.6,0,6.1-1,7.7-3c1.6-2,2.4-4.9,2.4-8.7v-4.2h-0.1
		c-0.9,1.9-2.2,3.5-3.9,4.7c-1.7,1.2-3.8,1.8-6.1,1.8c-2.5,0-4.7-0.4-6.4-1.2c-1.8-0.8-3.3-1.9-4.4-3.4c-1.2-1.5-2-3.2-2.5-5.2
		c-0.5-1.9-0.8-4.1-0.8-6.3c0-2.1,0.3-4.2,0.9-6.1c0.6-1.9,1.5-3.6,2.7-5c1.2-1.5,2.7-2.5,4.4-3.4c1.8-0.8,3.8-1.3,6.1-1.3
		c1.2,0,2.3,0.2,3.3,0.5c1,0.3,1.9,0.8,2.8,1.3c0.8,0.6,1.6,1.3,2.3,2c0.7,0.8,1.2,1.6,1.6,2.4h0.1v-5.4h3.8v28.8
		C531.6,340.9,531.3,343,530.8,344.8z M522,336.5c1.3-0.7,2.3-1.6,3.2-2.8c0.8-1.2,1.5-2.5,1.9-3.9c0.4-1.5,0.6-3,0.6-4.6
		c0-1.5-0.2-3.1-0.5-4.6c-0.4-1.5-1-2.9-1.8-4.2s-1.8-2.2-3.1-3c-1.3-0.8-2.9-1.2-4.7-1.2c-1.8,0-3.4,0.4-4.7,1.1
		c-1.3,0.7-2.4,1.7-3.2,2.9c-0.8,1.2-1.5,2.6-1.8,4.2c-0.4,1.6-0.6,3.2-0.6,4.7c0,1.6,0.2,3.1,0.6,4.6c0.4,1.5,1,2.8,1.9,3.9
		c0.8,1.2,1.9,2.1,3.2,2.8c1.3,0.7,2.9,1.1,4.6,1.1C519.3,337.5,520.8,337.2,522,336.5z"/>
	<path fill="#FFFFFF" d="M545,330.8c0.4,1.5,1,2.8,1.9,3.9c0.8,1.2,1.9,2.1,3.2,2.9c1.3,0.8,2.9,1.2,4.7,1.2c2.8,0,5-0.7,6.6-2.2
		c1.6-1.5,2.7-3.4,3.3-5.8h3.8c-0.8,3.6-2.3,6.3-4.5,8.3c-2.2,1.9-5.2,2.9-9.2,2.9c-2.5,0-4.6-0.4-6.4-1.3c-1.8-0.8-3.3-2.1-4.4-3.6
		c-1.2-1.5-1.9-3.3-2.5-5.3c-0.5-2-0.8-4.1-0.8-6.3c0-2.1,0.3-4.1,0.8-6.1s1.4-3.8,2.5-5.3c1.2-1.6,2.6-2.8,4.4-3.8
		c1.8-1,3.9-1.5,6.4-1.5c2.5,0,4.7,0.5,6.4,1.5c1.8,1,3.2,2.4,4.4,4c1.1,1.6,1.9,3.5,2.4,5.6s0.7,4.2,0.6,6.4h-24.1
		C544.4,327.9,544.6,329.3,545,330.8z M563.9,319.1c-0.5-1.3-1.1-2.5-1.9-3.6c-0.8-1-1.9-1.9-3.1-2.5c-1.2-0.6-2.6-0.9-4.1-0.9
		c-1.6,0-3,0.3-4.2,0.9c-1.2,0.6-2.2,1.5-3.1,2.5c-0.8,1-1.5,2.2-2.1,3.6c-0.5,1.3-0.8,2.7-1,4.1h20.3
		C564.6,321.8,564.4,320.4,563.9,319.1z"/>
	<path fill="#FFFFFF" d="M589.4,309.8v3.2h-6.4v21.1c0,1.3,0.2,2.2,0.5,2.9c0.4,0.7,1.2,1.1,2.5,1.2c1.1,0,2.2-0.1,3.3-0.2v3.2
		c-0.5,0-1.2,0-1.7,0.1c-0.5,0.1-1.2,0.1-1.7,0.1c-2.5,0-4.3-0.5-5.3-1.5c-1-1-1.5-2.9-1.5-5.5V313h-5.5v-3.2h5.5v-9.4h3.8v9.4
		H589.4z"/>
	<path fill="#FFFFFF" d="M602,297.8v17.4h0.1c0.7-1.9,2-3.5,3.9-4.6c1.9-1.2,3.9-1.8,6.1-1.8c2.2,0,4,0.3,5.5,0.8
		c1.5,0.5,2.7,1.3,3.5,2.4c0.9,1,1.5,2.3,1.9,3.8c0.4,1.5,0.5,3.2,0.5,5v20.1h-3.8v-19.5c0-1.3-0.1-2.5-0.4-3.8
		c-0.2-1.2-0.7-2.1-1.3-3c-0.6-0.8-1.4-1.5-2.4-2c-1-0.5-2.3-0.7-3.9-0.7c-1.5,0-2.9,0.2-4.1,0.8c-1.2,0.5-2.2,1.3-3,2.2
		c-0.8,1-1.5,2.1-1.9,3.4s-0.7,2.7-0.7,4.2v18.3h-3.8v-43.3L602,297.8L602,297.8z"/>
	<path fill="#FFFFFF" d="M637,330.8c0.4,1.5,1,2.8,1.8,3.9c0.8,1.2,1.9,2.1,3.2,2.9c1.3,0.8,2.9,1.2,4.7,1.2c2.8,0,5-0.7,6.6-2.2
		c1.6-1.5,2.7-3.4,3.3-5.8h3.8c-0.8,3.6-2.3,6.3-4.4,8.3c-2.2,1.9-5.2,2.9-9.2,2.9c-2.5,0-4.6-0.4-6.4-1.3c-1.8-0.8-3.3-2.1-4.4-3.6
		c-1.2-1.5-1.9-3.3-2.5-5.3c-0.5-2-0.8-4.1-0.8-6.3c0-2.1,0.3-4.1,0.8-6.1c0.5-2,1.4-3.8,2.5-5.3c1.2-1.6,2.6-2.8,4.4-3.8
		c1.8-1,3.9-1.5,6.4-1.5c2.5,0,4.7,0.5,6.4,1.5c1.8,1,3.2,2.4,4.4,4c1.1,1.6,1.9,3.5,2.4,5.6c0.5,2.1,0.7,4.2,0.6,6.4h-24.1
		C636.4,327.9,636.6,329.3,637,330.8z M655.9,319.1c-0.5-1.3-1.2-2.5-1.9-3.6c-0.8-1-1.9-1.9-3.1-2.5c-1.2-0.6-2.6-0.9-4.1-0.9
		c-1.6,0-3,0.3-4.2,0.9c-1.2,0.6-2.2,1.5-3.1,2.5c-0.8,1-1.5,2.2-2,3.6c-0.5,1.3-0.8,2.7-1,4.1h20.3
		C656.7,321.8,656.4,320.4,655.9,319.1z"/>
	<path fill="#FFFFFF" d="M672.5,309.8v7.3h0.1c1-2.5,2.5-4.5,4.6-5.9s4.5-2,7.3-1.9v3.8c-1.8-0.1-3.3,0.1-4.7,0.7
		c-1.4,0.5-2.7,1.3-3.7,2.4c-1,1-1.8,2.2-2.4,3.6c-0.5,1.4-0.8,2.9-0.8,4.6v16.7H669v-31.3H672.5L672.5,309.8z"/>
	<path fill="#FFFFFF" d="M451.7,368.8v28.1h-3.8v-28.1h-5.3v-3.2h5.3v-2.9c0-1.3,0.1-2.5,0.3-3.7c0.2-1.2,0.6-2.1,1.2-2.9
		c0.5-0.8,1.3-1.5,2.4-1.9c1-0.4,2.2-0.7,3.8-0.7c0.5,0,1.1,0,1.6,0.1c0.5,0.1,1,0.1,1.6,0.2v3.3c-0.5-0.1-1-0.1-1.5-0.2
		c-0.4-0.1-0.9-0.1-1.3-0.1c-1,0-1.9,0.2-2.4,0.5c-0.5,0.3-1,0.7-1.3,1.3c-0.2,0.5-0.4,1.2-0.5,1.9c-0.1,0.7-0.1,1.5-0.1,2.4v2.7
		h6.2v3.2L451.7,368.8L451.7,368.8z"/>
	<path fill="#FFFFFF" d="M484.4,366.1c1.8,0.9,3.4,2.1,4.6,3.6c1.3,1.5,2.2,3.2,2.9,5.3c0.7,2,1,4.1,1,6.4s-0.3,4.4-1,6.4
		c-0.7,2-1.6,3.8-2.9,5.3c-1.3,1.5-2.8,2.7-4.6,3.5c-1.8,0.8-3.9,1.3-6.4,1.3c-2.4,0-4.5-0.4-6.3-1.3c-1.8-0.8-3.4-2.1-4.6-3.5
		c-1.3-1.5-2.2-3.3-2.9-5.3c-0.7-2-1-4.1-1-6.4s0.3-4.4,1-6.4c0.7-2,1.6-3.8,2.9-5.3c1.3-1.5,2.8-2.7,4.6-3.6
		c1.8-0.9,3.9-1.3,6.3-1.3C480.4,364.7,482.5,365.2,484.4,366.1z M473.3,369.1c-1.4,0.8-2.5,1.8-3.4,3c-0.9,1.3-1.6,2.7-2.1,4.3
		c-0.5,1.6-0.7,3.2-0.7,4.9s0.2,3.3,0.7,4.9c0.5,1.6,1.2,3,2.1,4.2c0.9,1.3,2.1,2.2,3.4,3c1.4,0.8,3,1.2,4.8,1.2
		c1.8,0,3.4-0.4,4.8-1.2c1.4-0.8,2.5-1.8,3.4-3c0.9-1.3,1.6-2.7,2.1-4.2c0.5-1.6,0.7-3.2,0.7-4.9s-0.2-3.3-0.7-4.9
		c-0.5-1.6-1.2-3-2.1-4.3c-0.9-1.3-2.1-2.2-3.4-3c-1.4-0.8-3-1.2-4.8-1.2C476.2,367.9,474.6,368.4,473.3,369.1z"/>
	<path fill="#FFFFFF" d="M505.4,365.6v7.3h0.1c1-2.5,2.5-4.5,4.6-5.9c2.1-1.4,4.5-2,7.3-1.9v3.8c-1.8-0.1-3.3,0.1-4.7,0.7
		c-1.4,0.5-2.6,1.3-3.6,2.3c-1,1-1.8,2.2-2.4,3.6c-0.5,1.4-0.8,2.9-0.8,4.6v16.7h-3.8v-31.3L505.4,365.6L505.4,365.6z"/>
	<path fill="#FFFFFF" d="M545.3,370.5c0.7-1.3,1.5-2.4,2.6-3.3c1.1-0.8,2.4-1.5,3.9-1.9c1.5-0.4,3.2-0.6,5-0.6
		c1.4,0,2.7,0.1,4.1,0.4c1.4,0.2,2.6,0.7,3.7,1.5c1.1,0.7,2,1.8,2.7,3c0.7,1.3,1,3,1,5.2v16.6c0,1.5,0.7,2.3,2.2,2.3
		c0.4,0,0.8-0.1,1.2-0.2v3.2c-0.4,0.1-0.8,0.1-1.2,0.2c-0.4,0.1-0.8,0.1-1.3,0.1c-1,0-1.8-0.1-2.3-0.4c-0.6-0.2-1-0.6-1.3-1.1
		c-0.3-0.5-0.5-1.1-0.6-1.7c-0.1-0.7-0.1-1.4-0.1-2.2h-0.1c-0.7,1-1.4,1.9-2.1,2.7c-0.7,0.8-1.5,1.5-2.4,1.9c-0.8,0.5-1.9,0.9-3,1.2
		s-2.4,0.4-3.9,0.4c-1.5,0-2.9-0.2-4.1-0.5c-1.3-0.4-2.4-0.9-3.3-1.6c-1-0.7-1.7-1.7-2.2-2.9c-0.5-1.2-0.8-2.5-0.8-4.1
		c0-2.2,0.5-3.9,1.5-5.2c1-1.2,2.2-2.2,3.9-2.9c1.6-0.7,3.4-1.1,5.4-1.3c2-0.2,4.1-0.5,6.1-0.7c0.8-0.1,1.5-0.2,2.1-0.3
		c0.6-0.1,1.1-0.3,1.5-0.6s0.7-0.7,1-1.2c0.2-0.5,0.3-1.2,0.3-2.1c0-1.3-0.2-2.4-0.6-3.2c-0.4-0.8-1-1.5-1.8-1.9
		c-0.7-0.5-1.6-0.8-2.6-1s-2.1-0.3-3.2-0.3c-2.4,0-4.4,0.6-5.9,1.7c-1.5,1.2-2.4,3-2.4,5.6h-3.8
		C544.3,373.4,544.7,371.8,545.3,370.5z M564.4,379.8c-0.2,0.4-0.7,0.8-1.4,1c-0.7,0.2-1.3,0.4-1.8,0.4c-1.6,0.3-3.3,0.5-5,0.7
		c-1.7,0.2-3.3,0.5-4.7,1c-1.4,0.4-2.5,1.1-3.5,1.9c-0.9,0.8-1.3,2-1.3,3.5c0,1,0.2,1.8,0.6,2.5c0.4,0.7,0.9,1.4,1.5,1.9
		c0.7,0.5,1.4,1,2.2,1.2c0.8,0.3,1.7,0.4,2.6,0.4c1.5,0,2.9-0.2,4.2-0.7c1.3-0.4,2.5-1.1,3.5-1.9c1-0.8,1.8-1.9,2.4-3.1
		s0.9-2.6,0.9-4.1v-5L564.4,379.8L564.4,379.8z"/>
	<path fill="#FFFFFF" d="M603.4,353.6v18h0.1c0.4-1.2,1-2.1,1.8-3c0.7-0.8,1.6-1.6,2.5-2.1c1-0.6,2-1,3.2-1.3
		c1.2-0.3,2.2-0.4,3.4-0.4c2.4,0,4.4,0.4,6.2,1.3c1.8,0.9,3.2,2.1,4.4,3.6s2.1,3.3,2.6,5.3c0.5,2,0.8,4.1,0.8,6.4s-0.3,4.3-0.8,6.4
		c-0.5,2-1.5,3.8-2.6,5.3c-1.2,1.5-2.7,2.7-4.4,3.6c-1.8,0.8-3.8,1.3-6.2,1.3c-2.5,0-4.9-0.6-6.8-1.8c-1.9-1.2-3.5-2.9-4.4-5h-0.1
		v5.9h-3.5v-43.3h3.8V353.6z M624,376.5c-0.4-1.6-1-3-1.8-4.2c-0.8-1.3-1.9-2.3-3.2-3c-1.3-0.8-2.9-1.2-4.7-1.2
		c-2,0-3.8,0.4-5.2,1.2c-1.4,0.8-2.5,1.8-3.4,3c-0.8,1.3-1.5,2.7-1.9,4.2c-0.4,1.6-0.6,3.2-0.6,4.9s0.2,3.2,0.6,4.9
		c0.4,1.6,1,3,1.9,4.2c0.8,1.3,2,2.3,3.4,3c1.4,0.7,3.1,1.2,5.2,1.2c1.8,0,3.4-0.4,4.7-1.2c1.3-0.8,2.4-1.8,3.2-3
		c0.8-1.3,1.5-2.7,1.8-4.2c0.4-1.6,0.5-3.2,0.5-4.9C624.6,379.7,624.4,378.1,624,376.5z"/>
	<path fill="#FFFFFF" d="M640.5,386.6c0.4,1.5,1,2.8,1.9,3.9c0.8,1.2,1.9,2.1,3.2,2.9s2.9,1.2,4.7,1.2c2.8,0,5-0.7,6.6-2.2
		c1.6-1.5,2.7-3.4,3.3-5.8h3.8c-0.8,3.6-2.3,6.3-4.5,8.3c-2.2,1.9-5.2,2.9-9.2,2.9c-2.5,0-4.6-0.4-6.4-1.3c-1.8-0.8-3.3-2.1-4.4-3.6
		c-1.2-1.5-1.9-3.3-2.5-5.3s-0.8-4.1-0.8-6.4c0-2.1,0.3-4.1,0.8-6.1s1.4-3.8,2.5-5.3c1.2-1.6,2.6-2.8,4.4-3.8c1.8-1,3.9-1.4,6.4-1.4
		s4.7,0.5,6.4,1.5c1.8,1,3.2,2.3,4.4,3.9c1.1,1.6,1.9,3.5,2.4,5.6c0.5,2.1,0.7,4.2,0.6,6.5H640C640,383.7,640.2,385.1,640.5,386.6z
		 M659.5,374.9c-0.5-1.3-1.1-2.5-1.9-3.6s-1.9-1.9-3.1-2.5c-1.2-0.6-2.6-0.9-4.1-0.9c-1.6,0-3,0.3-4.2,0.9c-1.2,0.6-2.2,1.5-3.1,2.5
		c-0.8,1-1.5,2.2-2.1,3.6c-0.5,1.3-0.8,2.7-1,4.1h20.3C660.2,377.6,659.9,376.2,659.5,374.9z"/>
	<path fill="#FFFFFF" d="M685,365.6v3.2h-6.4V390c0,1.3,0.2,2.2,0.5,2.9c0.4,0.7,1.2,1.1,2.5,1.2c1.1,0,2.2-0.1,3.3-0.2v3.2
		c-0.5,0-1.2,0-1.7,0.1c-0.5,0.1-1.2,0.1-1.7,0.1c-2.5,0-4.3-0.5-5.3-1.5c-1-1-1.5-2.8-1.5-5.5v-21.4h-5.5v-3.2h5.5v-9.4h3.8v9.4
		L685,365.6L685,365.6z"/>
	<path fill="#FFFFFF" d="M706.3,365.6v3.2h-6.4V390c0,1.3,0.2,2.2,0.5,2.9c0.4,0.7,1.2,1.1,2.5,1.2c1.1,0,2.2-0.1,3.3-0.2v3.2
		c-0.5,0-1.2,0-1.7,0.1c-0.5,0.1-1.2,0.1-1.7,0.1c-2.5,0-4.3-0.5-5.3-1.5c-1-1-1.5-2.8-1.5-5.5v-21.4h-5.5v-3.2h5.5v-9.4h3.8v9.4
		L706.3,365.6L706.3,365.6z"/>
	<path fill="#FFFFFF" d="M717.9,386.6c0.4,1.5,1,2.8,1.8,3.9c0.8,1.2,1.9,2.1,3.2,2.9c1.3,0.8,2.9,1.2,4.7,1.2c2.8,0,5-0.7,6.6-2.2
		c1.6-1.5,2.7-3.4,3.3-5.8h3.8c-0.8,3.6-2.3,6.3-4.4,8.3c-2.2,1.9-5.2,2.9-9.2,2.9c-2.5,0-4.6-0.4-6.4-1.3c-1.8-0.8-3.3-2.1-4.4-3.6
		c-1.2-1.5-1.9-3.3-2.5-5.3c-0.5-2-0.8-4.1-0.8-6.4c0-2.1,0.3-4.1,0.8-6.1c0.5-2,1.4-3.8,2.5-5.3c1.2-1.6,2.6-2.8,4.4-3.8
		c1.8-1,3.9-1.4,6.4-1.4c2.5,0,4.7,0.5,6.4,1.5c1.8,1,3.2,2.3,4.4,3.9c1.2,1.6,1.9,3.5,2.4,5.6c0.5,2.1,0.7,4.2,0.6,6.5h-24.1
		C717.4,383.7,717.6,385.1,717.9,386.6z M736.9,374.9c-0.5-1.3-1.1-2.5-1.9-3.6c-0.8-1-1.9-1.9-3.1-2.5c-1.2-0.6-2.6-0.9-4.1-0.9
		c-1.6,0-3,0.3-4.2,0.9c-1.2,0.6-2.2,1.5-3.1,2.5c-0.8,1-1.5,2.2-2,3.6s-0.8,2.7-1,4.1h20.3C737.6,377.6,737.4,376.2,736.9,374.9z"
		/>
	<path fill="#FFFFFF" d="M753.5,365.6v7.3h0.1c1-2.5,2.5-4.5,4.6-5.9s4.5-2,7.3-1.9v3.8c-1.8-0.1-3.3,0.1-4.7,0.7
		c-1.4,0.5-2.7,1.3-3.6,2.3c-1,1-1.8,2.2-2.4,3.6c-0.5,1.4-0.8,2.9-0.8,4.6v16.7H750v-31.3L753.5,365.6L753.5,365.6z"/>
	<path fill="#FFFFFF" d="M793.4,353.6l9.8,37.9h0.1l10.6-37.9h5.2l10.6,37.9h0.1l9.9-37.9h4.1l-12,43.3h-4.4l-11-38.8h-0.1
		l-10.9,38.8H801l-12-43.3L793.4,353.6L793.4,353.6z"/>
	<path fill="#FFFFFF" d="M852.7,386.6c0.4,1.5,1,2.8,1.8,3.9c0.8,1.2,1.9,2.1,3.2,2.9c1.3,0.8,2.9,1.2,4.7,1.2c2.8,0,5-0.7,6.6-2.2
		c1.6-1.5,2.7-3.4,3.3-5.8h3.8c-0.8,3.6-2.3,6.3-4.5,8.3c-2.2,1.9-5.2,2.9-9.2,2.9c-2.5,0-4.6-0.4-6.4-1.3c-1.8-0.8-3.3-2.1-4.4-3.6
		c-1.2-1.5-1.9-3.3-2.5-5.3c-0.5-2-0.8-4.1-0.8-6.4c0-2.1,0.2-4.1,0.8-6.1s1.4-3.8,2.5-5.3c1.2-1.6,2.6-2.8,4.4-3.8
		c1.8-1,3.9-1.4,6.4-1.4c2.5,0,4.7,0.5,6.4,1.5c1.8,1,3.2,2.3,4.4,3.9c1.1,1.6,1.9,3.5,2.4,5.6c0.5,2.1,0.7,4.2,0.6,6.5h-24.1
		C852.1,383.7,852.3,385.1,852.7,386.6z M871.6,374.9c-0.5-1.3-1.1-2.5-1.9-3.6c-0.8-1-1.9-1.9-3.1-2.5c-1.2-0.6-2.6-0.9-4.1-0.9
		c-1.6,0-3,0.3-4.2,0.9c-1.2,0.6-2.2,1.5-3.1,2.5s-1.5,2.2-2.1,3.6c-0.5,1.3-0.8,2.7-1,4.1h20.3
		C872.3,377.6,872.1,376.2,871.6,374.9z"/>
	<path fill="#FFFFFF" d="M888.5,353.6v18h0.1c0.4-1.2,1-2.1,1.7-3c0.7-0.8,1.6-1.6,2.5-2.1c1-0.6,2-1,3.2-1.3
		c1.2-0.3,2.2-0.4,3.4-0.4c2.4,0,4.4,0.4,6.2,1.3c1.8,0.9,3.2,2.1,4.4,3.6c1.2,1.5,2.1,3.3,2.6,5.3c0.5,2,0.8,4.1,0.8,6.4
		s-0.3,4.3-0.8,6.4c-0.5,2-1.5,3.8-2.6,5.3s-2.7,2.7-4.4,3.6c-1.8,0.8-3.8,1.3-6.2,1.3c-2.5,0-4.9-0.6-6.8-1.8c-2-1.2-3.5-2.9-4.4-5
		h-0.1v5.9h-3.5v-43.3h3.9V353.6z M909.2,376.5c-0.4-1.6-1-3-1.8-4.2c-0.8-1.3-1.9-2.3-3.2-3c-1.3-0.8-2.9-1.2-4.7-1.2
		c-2,0-3.8,0.4-5.2,1.2c-1.4,0.8-2.5,1.8-3.4,3c-0.8,1.3-1.5,2.7-1.9,4.2c-0.4,1.6-0.6,3.2-0.6,4.9s0.2,3.2,0.6,4.9
		c0.4,1.6,1,3,1.9,4.2c0.8,1.3,2,2.3,3.4,3c1.4,0.7,3.1,1.2,5.2,1.2c1.8,0,3.4-0.4,4.7-1.2c1.3-0.8,2.4-1.8,3.2-3
		c0.8-1.3,1.5-2.7,1.8-4.2c0.4-1.6,0.6-3.2,0.6-4.9C909.8,379.7,909.5,378.1,909.2,376.5z"/>
</g>
</svg>
